<?xml version="1.0" encoding="utf-8"?>
<!-- Generator: Adobe Illustrator 19.0.0, SVG Export Plug-In . SVG Version: 6.00 Build 0)  -->
<svg version="1.1" id="Layer_1" xmlns="http://www.w3.org/2000/svg" xmlns:xlink="http://www.w3.org/1999/xlink" x="0px" y="0px"
	 width="1400px" height="980px" viewBox="0 0 1400 980" style="enable-background:new 0 0 1400 980;" xml:space="preserve">
<style type="text/css">
	.st0{fill:url(#XMLID_52_);}
	.st1{fill:#011E28;}
	.st2{fill:url(#XMLID_58_);}
	.st3{fill:#382319;}
	.st4{fill:#CB8C56;}
	.st5{fill:url(#XMLID_61_);}
	.st6{fill:url(#XMLID_62_);}
	.st7{fill:url(#XMLID_64_);}
	.st8{fill:url(#XMLID_65_);}
	.st9{fill:url(#XMLID_157_);}
	.st10{fill:url(#XMLID_497_);}
	.st11{fill:#79462B;}
	.st12{fill:#7AA440;}
	.st13{fill:#BA6509;}
	.st14{fill:#F7941E;}
	.st15{fill:#FBB040;}
	.st16{fill:#AB6C4B;}
	.st17{fill:url(#XMLID_500_);}
	.st18{fill:url(#XMLID_570_);}
	.st19{fill:url(#XMLID_572_);}
	.st20{fill:url(#XMLID_573_);}
	.st21{fill:url(#XMLID_574_);}
	.st22{fill:url(#XMLID_575_);}
	.st23{fill:url(#XMLID_576_);}
	.st24{fill:url(#XMLID_577_);}
	.st25{fill:url(#XMLID_578_);}
	.st26{fill:url(#XMLID_579_);}
	.st27{fill:url(#XMLID_581_);}
	.st28{fill:#FFFFFF;}
	.st29{fill:url(#XMLID_582_);}
	.st30{fill:#CCC5B4;}
	.st31{fill:#E2DCCC;}
	.st32{fill:#182935;}
	.st33{fill:#724C37;}
	.st34{fill:none;}
	.st35{fill:#D7066C;}
	.st36{fill:#99664D;}
	.st37{fill:#93989C;}
	.st38{fill:#C1BFBF;}
	.st39{fill:#646F85;}
	.st40{fill:#878787;}
	.st41{fill:#B3B8BC;}
	.st42{fill:url(#XMLID_583_);}
	.st43{fill:url(#XMLID_587_);}
	.st44{fill:url(#XMLID_588_);}
	.st45{fill:#3E4959;}
	.st46{fill:url(#XMLID_589_);}
	.st47{fill:url(#XMLID_590_);}
	.st48{fill:url(#XMLID_591_);}
	.st49{fill:url(#XMLID_592_);}
	.st50{fill:url(#XMLID_593_);}
	.st51{fill:url(#XMLID_594_);}
	.st52{fill:url(#XMLID_595_);}
	.st53{fill:url(#XMLID_596_);}
	.st54{fill:#1B2028;}
</style>
<g id="XMLID_4_">
	<linearGradient id="XMLID_52_" gradientUnits="userSpaceOnUse" x1="298.97" y1="-130.9497" x2="1079.068" y2="1076.944">
		<stop  offset="0" style="stop-color:#3E8C98"/>
		<stop  offset="0.2204" style="stop-color:#388390"/>
		<stop  offset="0.5866" style="stop-color:#29697B"/>
		<stop  offset="1" style="stop-color:#14455C"/>
	</linearGradient>
	<rect id="XMLID_28_" class="st0" width="1400" height="980"/>
	<g id="XMLID_493_">
		<path id="XMLID_46_" class="st1" d="M1015.7,688.9c-5.2-1.3-10.1-2.8-14.9-4.4l37.8-104.5c10.6-3.6,21.5-6.3,32.6-7.1
			c13.1-0.9,27.7,0.4,38.1-7.8c6.6-5.2,10.4-13.6,17.4-18.2c9.2-6,22.7-4.5,30.1-12.7c-3.6-10.5-16.8-14.9-27.7-13
			s-20.4,8.5-30.2,13.7c-15.8,8.5-32.2,12.8-49.5,15.4l107.1-296.5L319.8,585.7l278.2,54c-10.4,2.4-22.3,8.8-31.6,13.9
			c-22.6,12.3-45.5,25.2-65.6,41.2c-17.1,13.6-38.7,20-59.7,26c-54.9,15.8-106.1,39.5-162.4,48.7c-9.3,1.5-18.3,5.2-26,10.6
			c-3.8,2.6-7.5,6.3-7.5,10.9c0.1,9.7,14.4,10.5,23.7,7.9c148.3-41.6,302.3-68.7,442.2-133.1l88.9,14.7c-0.7,0.4-1.5,0.8-2.2,1.2
			c-7.8,4.4-14.8,9.9-21.8,15.4c-11.6,9.1-15.7,25.9-29.1,32.1c-88.5,40.5-177.9,86.7-262.8,134.3c-19.8-4.2-41.7,3.4-54.6,19.1
			c-1.1,1.3-2.2,2.8-2.4,4.6c-0.4,3.7,3.5,6.6,7.2,6.9s7.3-1.1,10.9-1.7c15.2-2.7,29.7,7.6,45,8.4c19.9,1.1,36.9-13.3,52.6-25.6
			c64.4-50.4,143.5-77,218.5-109.5c47.8-20.7,96.6-42.1,142.1-67.9l87.3,14.4l4.4-12c24.8,4.5,50,6.9,75.3,7.2
			c31.7,0.4,65-3.1,91.4-20.7C1114.4,700.1,1063.5,700.8,1015.7,688.9z"/>
		<linearGradient id="XMLID_58_" gradientUnits="userSpaceOnUse" x1="424.2983" y1="821.5076" x2="640.0919" y2="821.5076">
			<stop  offset="0" style="stop-color:#FEC5A7"/>
			<stop  offset="1" style="stop-color:#C2636B"/>
		</linearGradient>
		<path id="XMLID_364_" class="st2" d="M552.8,802.8c-8.2,6.7-16.8,15.4-27.7,14.9c-8.6-0.4-14.7-6.6-19.7-12.3
			c-8.3-9.6-16.7-19.6-28.6-26c-11.9-6.3-28.5-8.2-40.8-1.2c-2.3,1.3-4.6,3.3-4.6,5.6c0,6.5,14.1,3.5,17.9,8.8
			c-4.6,1-9.3,0.4-14,1.2c-4.6,0.8-9.5,3.9-9.4,7.9c0.2,5.6,9.1,6.6,15.7,6.1c-5.9,3.2-11.1,7.4-15.1,12.3c-1.1,1.3-2.1,2.8-2.2,4.3
			c-0.2,3.5,4.4,5.8,8.5,5.6s8.1-1.8,12.2-2.5c14.7-2.4,26.8,8.1,34.4,18.5c5.3,7.3,10.1,15.2,18.4,20c8.3,4.8,21.5,5,28-2.2
			c2.9-3.2,4-7.3,6-10.9c5.1-9,15.9-14.6,26-19.9c27.2-14.2,53.7-29.5,79.4-45.8c1.2-0.8,2.6-1.7,2.9-3c0.7-2.7-3.4-4-6.6-4.2
			C606.3,778.2,573.6,785.9,552.8,802.8z"/>
		<path id="XMLID_37_" class="st3" d="M536.1,853.3c3.6-3.4,3.5-9.1-0.1-12.6c-2-1.9-3.6-4.2-4.8-6.6c-3.2-6.2-4.2-13.3-5.2-20.2
			c-6,0.2-13.6-6.8-16.9-11.7c-18.7-28.1-51-46.8-84.7-49.1c-6.9-0.5-14.8,0.1-19.3,5.4c-2.6,3.1-3.5,7.2-4.2,11.2
			c-3.8,22.5-0.5,48.8,17.8,62.4c6.8,5.1,15,7.9,22.5,11.8c10.3,5.5,19.4,13.4,26.2,22.9c5.6,7.8,10.5,17.3,19.5,20.7
			c12.2,4.5,25.1-4.6,33.4-14.5C525.5,866.6,530.1,859,536.1,853.3z"/>
		<path id="XMLID_501_" class="st4" d="M463,832c-31.9-14.6-55.4-44.1-51.1-77.9c-2.7,0.8-5.1,2.2-7,4.4c-2.6,3.1-3.5,7.2-4.2,11.2
			c-3.8,22.5-0.5,48.8,17.8,62.4c6.8,5.1,15,7.9,22.5,11.8c10.3,5.5,19.4,13.4,26.2,22.9c5.6,7.8,10.5,17.3,19.5,20.7
			c7.3,2.7,14.9,0.5,21.6-3.9c-4.9-0.3-9.7-2.1-14.3-6.7C481,863,480,840,463,832z"/>
		<g id="XMLID_1_">
			<linearGradient id="XMLID_61_" gradientUnits="userSpaceOnUse" x1="220.0464" y1="733.103" x2="255.5307" y2="733.103">
				<stop  offset="0" style="stop-color:#FEC5A7"/>
				<stop  offset="1" style="stop-color:#C2636B"/>
			</linearGradient>
			<path id="XMLID_365_" class="st5" d="M250.9,728.5c-3.4-1.6-7.7-0.8-11.1-2.6l-4.2-0.1c-4.2-1.4-8.7,1-12.1,3.9
				c-2,1.7-4,4.2-3.4,6.8c0.8,3.5,5.4,4.2,9,4.1c7.4-0.1,14.9-0.1,22.3-0.2c0.7,0,1.5,0,2.1-0.3c1-0.5,1.6-1.7,1.8-2.8
				C256,733.9,254.1,730.1,250.9,728.5z"/>
			<linearGradient id="XMLID_62_" gradientUnits="userSpaceOnUse" x1="220.4572" y1="747.5208" x2="269.9154" y2="747.5208">
				<stop  offset="0" style="stop-color:#FEC5A7"/>
				<stop  offset="1" style="stop-color:#C2636B"/>
			</linearGradient>
			<path id="XMLID_363_" class="st6" d="M222.9,747.3c-1.2,1.3-2.3,2.8-2.5,4.5c-0.3,3.5,3.6,6.2,7.1,6.1c3.5,0,6.8-1.9,10-3.2
				c6.6-2.7,13.9-3.7,20.9-2.7c2.3,0.3,4.7,0.8,7,0.3s4.5-2.5,4.3-4.8c-0.1-2.2-2.1-3.7-4-4.9C251.8,734.4,234.6,734.6,222.9,747.3z
				"/>
			<linearGradient id="XMLID_64_" gradientUnits="userSpaceOnUse" x1="220.4516" y1="743.7213" x2="405.1777" y2="743.7213">
				<stop  offset="0" style="stop-color:#FEC5A7"/>
				<stop  offset="1" style="stop-color:#C2636B"/>
			</linearGradient>
			<path id="XMLID_35_" class="st7" d="M265.7,727c-5.8-3.9-11.2-8.5-17.5-11.5s-13.9-4.2-20.3-1.2c-2.9,1.4-5.3,3.9-6.8,6.8
				c-2.4,4.9,1.5,10.5,6.9,10.1l15.6-1.1c-3.3,6.9-6.1,14.3-4.6,22c0.7,3.5,2.3,6.8,5,9.2c10.2,9,24.8-1.7,35.9,3.6
				c4.1,2,7,5.8,10.9,8c9.2,4.9,20.2-0.8,29.9-4.7c8.1-3.3,16.6-5.4,25.2-7.4c20.6-4.8,42.1-9.6,59.1-22.2
				c-0.6,0.4-15.8-4.2-18.2-4.2c-6.2-0.1-12.2,1.4-18.3,2.4c-10.4,1.8-20.4,5.2-30.9,6.7C312.9,747,286.6,741.2,265.7,727z"/>
			<path id="XMLID_29_" class="st3" d="M319.2,771.1c3.5-9.7,1.4-21.1-5.3-28.9c-19.2-1.2-39.9-12.9-50.9-28.7
				c-2.6-3.7-4.8-7.7-8.3-10.5c-3.6-2.9-8.2-4.3-12.7-5.5c-12.9-3.2-26.2-4.9-39.4-4.9c-2.2,0-4.6,0.1-6.5,1.1
				c-2.8,1.5-4.3,4.6-5.2,7.6c-5.8,17.9,1,39.1,16.1,50.2c17.6,13,44.4,13.3,56.4,31.6c2.5,3.9,4.3,8.5,8.1,11.2
				c7.6,5.4,18.3,0,25-6.5S309.9,771.9,319.2,771.1z"/>
			<path id="XMLID_467_" class="st4" d="M253,743c-8-9-8-22-18-30c-10.6-9.8-29.3-17.6-43.9-12.5c-0.1,0.2-0.2,0.5-0.2,0.7
				c-5.8,17.9,1,39.1,16.1,50.2c17.6,13,44.4,13.3,56.4,31.6c2.5,3.9,4.3,8.5,8.1,11.2c6.6,4.7,15.5,1.3,22.1-3.9
				c0.2-0.4,0.3-0.8,0.5-1.2C303,765,266,760,253,743z"/>
		</g>
		<g id="XMLID_5_">
			
				<linearGradient id="XMLID_65_" gradientUnits="userSpaceOnUse" x1="1171.3864" y1="479.92" x2="1168.7584" y2="468.9702" gradientTransform="matrix(0.9971 -7.617707e-002 7.617707e-002 0.9971 -37.0138 77.7597)">
				<stop  offset="0" style="stop-color:#FEC5A7"/>
				<stop  offset="1" style="stop-color:#C2636B"/>
			</linearGradient>
			<path id="XMLID_368_" class="st8" d="M1190.7,459.3c-0.9,2.1-3,3.8-5.3,3.9c-2.9,0.1-5.3-2-8-3c-3.8-1.3-8-0.1-11.9,1.2
				c-8.5,3-16.7,6.6-24.7,10.8c1.8-1,3.7-4.5,5.3-6c2.1-2,4.4-3.9,6.7-5.6c4.8-3.3,10.1-5.9,15.7-7.7
				C1174.8,451.2,1196.8,445.1,1190.7,459.3z"/>
			
				<linearGradient id="XMLID_157_" gradientUnits="userSpaceOnUse" x1="1172.4479" y1="471.6535" x2="1164.7101" y2="458.6598" gradientTransform="matrix(0.9971 -7.617707e-002 7.617707e-002 0.9971 -37.0138 77.7597)">
				<stop  offset="0" style="stop-color:#FEC5A7"/>
				<stop  offset="1" style="stop-color:#C2636B"/>
			</linearGradient>
			<path id="XMLID_367_" class="st9" d="M1187.2,438.7c2.4,1.3,4.6,3.2,5.3,5.8c0.7,2.6-0.3,5.4-2.2,7.2c-1.9,1.8-4.7,2.6-7.3,2.3
				c-2-0.2-4-1-6.1-0.8c-3.9,0.2-6.8,3.6-9.6,6.4c-6.6,6.7-15.2,11.3-24.3,13.3c1.6-0.3,7-12.4,8.4-14.3c3.2-4.7,6.9-9.1,10.8-13.1
				C1169.1,438.2,1176.9,433.3,1187.2,438.7z"/>
			
				<linearGradient id="XMLID_497_" gradientUnits="userSpaceOnUse" x1="1052.0205" y1="480.4922" x2="1188.0856" y2="480.4922" gradientTransform="matrix(0.9971 -7.617707e-002 7.617707e-002 0.9971 -37.0138 77.7597)">
				<stop  offset="0" style="stop-color:#C2636B"/>
				<stop  offset="1" style="stop-color:#FEC5A7"/>
			</linearGradient>
			<path id="XMLID_366_" class="st10" d="M1133.8,461.6c6-5.8,11.3-12.3,17.7-17.6s14.5-9.3,22.8-8.8c3.5,0.2,7.7,2,8,5.5
				c0.3,3.3-3,5.8-6.2,6.7c-3.2,0.9-6.7,0.9-9.6,2.6c-6.9,4.2-5.4,15.2-10.7,21.3c-3.4,3.9-8.8,5.1-13.7,6.5
				c-31.1,8.4-58.9,29.4-91.1,30.6c2.4-0.1,15.4-6.7,18.7-8.7c7.2-4.4,13-12.8,21.2-14.7C1107.1,481.4,1121.6,473.3,1133.8,461.6z"
				/>
		</g>
		<polygon id="XMLID_6_" class="st11" points="319.8,585.7 319.8,527.4 967.6,619.5 967.6,677.8 		"/>
		<path id="XMLID_528_" class="st12" d="M628.4,590.5c-15.2-7.6-33.5-3.4-49.7,1.6s-33.5,10.9-49.9,6.1
			c9.4,14.8,19.3,28.4,28.7,43.3c10.3,1.9,22.1,0,32-3.6c9.9-3.5,19.5-8,29.8-10c10.3-2.1,21.6-1.5,30.3,4.5L628.4,590.5z"/>
		<g id="XMLID_533_">
			<circle id="XMLID_564_" class="st13" cx="469.6" cy="618.7" r="27.1"/>
			<circle id="XMLID_563_" class="st14" cx="468.4" cy="616.9" r="27.1"/>
			<circle id="XMLID_562_" class="st13" cx="468.4" cy="616.9" r="21.8"/>
			<circle id="XMLID_561_" class="st15" cx="468.4" cy="616.9" r="20.1"/>
			<g id="XMLID_534_">
				<path id="XMLID_536_" class="st13" d="M457.6,624.6l2.2-2.1c-1.4-1.7-2.4-3.6-2.7-5l3.4-1.8c0.4,1.5,1.2,3.3,2.6,4.9
					c1.2,1.3,2.6,1.8,3.6,0.9c0.9-0.8,0.8-2.1-0.2-4.4c-1.5-3.3-1.9-6.1,0.4-8.2c2.1-1.9,5.1-2,7.9,0.1l2.2-2.1l2.1,2.3l-2.1,1.9
					c1.4,1.6,2,3,2.4,4.1l-3.3,1.8c-0.3-0.9-0.8-2.4-2.3-4.1c-1.4-1.5-2.5-1.4-3.2-0.8c-0.8,0.7-0.5,2,0.6,4.7
					c1.6,3.7,1.3,6.1-0.8,8c-2.1,1.9-5.3,2.1-8.3-0.2l-2.4,2.2L457.6,624.6z"/>
			</g>
		</g>
		<polygon id="XMLID_8_" class="st16" points="967.6,677.8 967.6,619.5 1156.3,195.6 1156.3,253.9 		"/>
		<g id="XMLID_393_">
			<linearGradient id="XMLID_500_" gradientUnits="userSpaceOnUse" x1="653.1678" y1="634.0098" x2="1175.6506" y2="634.0098">
				<stop  offset="0" style="stop-color:#C2636B"/>
				<stop  offset="1" style="stop-color:#FEC5A7"/>
			</linearGradient>
			<path id="XMLID_379_" class="st17" d="M660.2,637.4c6.7,13.3,19.5,22.8,33.3,28.3c13.8,5.5,28.8,7.5,43.6,9
				c38.5,3.9,77.4,4.7,115.8-0.2c38.2-4.9,77-15.4,114.5-6.7c20.2,4.7,38.8,14.8,58.9,20.3c54.8,15.1,118.1-8.8,149.3-56.3
				c-38.5,40.3-102.1,54.3-153.9,33.8c-10.1-4-19.8-9.2-29.8-13.4c-29.7-12.6-62.8-16.8-94.7-12.1c-31.4,4.6-62.7,17.6-93.8,11.5
				c-15.2-3-29.4-10.6-40.3-21.6c-10-10.1-17.2-22.8-27.7-32.4c-16-14.7-47.5-26.2-69.4-20.9C646.8,581.3,652.9,623,660.2,637.4z"/>
			<g id="XMLID_98_">
				<linearGradient id="XMLID_570_" gradientUnits="userSpaceOnUse" x1="1036.3885" y1="681.597" x2="1079.8398" y2="681.597">
					<stop  offset="0" style="stop-color:#C2636B"/>
					<stop  offset="1" style="stop-color:#FEC5A7"/>
				</linearGradient>
				<path id="XMLID_412_" class="st18" d="M1079.8,691.2c-1.4-5.5-1.7-11.2-0.5-16.5c-14.1,0.7-28.3-0.6-42-4.1
					c-1.2,6.2-1.1,12.8-0.7,18.2c0.1,0.6,0.1,1.2,0.2,1.7C1051.1,693.1,1065.6,693.2,1079.8,691.2z"/>
				<linearGradient id="XMLID_572_" gradientUnits="userSpaceOnUse" x1="911.0729" y1="652" x2="956.799" y2="652">
					<stop  offset="0" style="stop-color:#C2636B"/>
					<stop  offset="1" style="stop-color:#FEC5A7"/>
				</linearGradient>
				<path id="XMLID_404_" class="st19" d="M956.8,641.5c-14.8-2.9-30-3.9-45.1-2.9c-1,8.9-0.9,18.6,1.2,27.3c14-1.5,28-2,41.8-0.3
					c0-0.2,0-0.4-0.1-0.5C954.6,658,954.6,649.1,956.8,641.5z"/>
				<linearGradient id="XMLID_573_" gradientUnits="userSpaceOnUse" x1="653.1678" y1="614.2836" x2="739.4366" y2="614.2836">
					<stop  offset="0" style="stop-color:#C2636B"/>
					<stop  offset="1" style="stop-color:#FEC5A7"/>
				</linearGradient>
				<path id="XMLID_413_" class="st20" d="M739.4,601.5c-1.3-1.3-2.6-2.6-3.9-3.9c-16-14.7-47.5-26.2-69.4-20.9
					c-19.3,4.6-13.2,46.3-5.9,60.7c3.1,6.1,7.4,11.3,12.5,15.8C684.7,626.9,710.5,607.6,739.4,601.5z"/>
				<linearGradient id="XMLID_574_" gradientUnits="userSpaceOnUse" x1="672.7272" y1="639.6852" x2="825.3296" y2="639.6852">
					<stop  offset="0" style="stop-color:#C2636B"/>
					<stop  offset="1" style="stop-color:#FEC5A7"/>
				</linearGradient>
				<path id="XMLID_434_" class="st21" d="M821.7,665c-0.3-3.8-0.5-7.9-0.1-11.9c-6.1,0.1-12.1-0.4-18.2-1.6
					c-15.2-3-29.4-10.6-40.3-21.6c-8.7-8.8-15.3-19.5-23.7-28.5c-28.9,6.2-54.7,25.4-66.7,51.7c6.1,5.3,13.3,9.5,20.8,12.5
					c13.8,5.5,28.8,7.5,43.6,9c29.3,2.9,58.8,4.1,88.1,2.4C823.7,673.3,822.5,669.2,821.7,665z"/>
				<linearGradient id="XMLID_575_" gradientUnits="userSpaceOnUse" x1="821.3846" y1="661.7617" x2="867.5878" y2="661.7617">
					<stop  offset="0" style="stop-color:#C2636B"/>
					<stop  offset="1" style="stop-color:#FEC5A7"/>
				</linearGradient>
				<path id="XMLID_430_" class="st22" d="M867.6,672.4c-0.2-1-0.4-2.1-0.5-3.1c-0.6-6.9-2.1-15.1-1.4-22.9
					c-14.7,3.4-29.4,6.5-44.1,6.7c-0.4,4-0.2,8,0.1,11.9c0.8,4.2,1.9,8.3,3.6,12.1c9.2-0.5,18.4-1.4,27.6-2.6
					C857.8,673.9,862.7,673.2,867.6,672.4z"/>
				<linearGradient id="XMLID_576_" gradientUnits="userSpaceOnUse" x1="865.5253" y1="655.4758" x2="912.862" y2="655.4758">
					<stop  offset="0" style="stop-color:#C2636B"/>
					<stop  offset="1" style="stop-color:#FEC5A7"/>
				</linearGradient>
				<path id="XMLID_427_" class="st23" d="M911.7,638.5c-4.8,0.3-9.7,0.8-14.5,1.5c-10.5,1.5-21,4-31.5,6.4
					c-0.7,7.8,0.8,15.9,1.4,22.9c0.1,1,0.3,2.1,0.5,3.1c15.1-2.3,30.2-5,45.3-6.6C910.8,657.1,910.7,647.5,911.7,638.5z"/>
				<linearGradient id="XMLID_577_" gradientUnits="userSpaceOnUse" x1="954.5883" y1="659.1406" x2="999.1894" y2="659.1406">
					<stop  offset="0" style="stop-color:#C2636B"/>
					<stop  offset="1" style="stop-color:#FEC5A7"/>
				</linearGradient>
				<path id="XMLID_420_" class="st24" d="M991.9,652.1c-11.3-4.8-23.1-8.3-35.1-10.7c-2.2,7.7-2.2,16.5-2.2,23.5
					c0,0.2,0,0.4,0.1,0.5c4.3,0.5,8.6,1.3,12.8,2.2c9.4,2.2,18.4,5.5,27.4,9c0.1-4,0.4-8,0.7-11.8c0.6-3.5,1.9-6.7,3.5-9.6
					C996.8,654.3,994.4,653.2,991.9,652.1z"/>
				<linearGradient id="XMLID_578_" gradientUnits="userSpaceOnUse" x1="994.9143" y1="672.9364" x2="1037.3469" y2="672.9364">
					<stop  offset="0" style="stop-color:#C2636B"/>
					<stop  offset="1" style="stop-color:#FEC5A7"/>
				</linearGradient>
				<path id="XMLID_418_" class="st25" d="M1037.3,670.6c-5.3-1.4-10.5-3-15.6-5c-7.7-3-15.1-6.7-22.6-10.2
					c-1.7,2.9-2.9,6.1-3.5,9.6c-0.3,3.8-0.7,7.8-0.7,11.8c10.4,4,20.7,8.3,31.4,11.3c3.5,1,7,1.8,10.6,2.4c-0.1-0.6-0.2-1.2-0.2-1.7
					C1036.2,683.3,1036.2,676.8,1037.3,670.6z"/>
				<linearGradient id="XMLID_579_" gradientUnits="userSpaceOnUse" x1="1078.5787" y1="680.2277" x2="1116.2202" y2="680.2277">
					<stop  offset="0" style="stop-color:#C2636B"/>
					<stop  offset="1" style="stop-color:#FEC5A7"/>
				</linearGradient>
				<path id="XMLID_411_" class="st26" d="M1112.3,669.3C1112.3,669.3,1112.3,669.3,1112.3,669.3c-10.8,3-21.9,4.8-33,5.4
					c-1.2,5.3-0.9,11,0.5,16.5c12.5-1.8,24.8-5.3,36.4-10.3C1114.3,677.3,1112.9,673.4,1112.3,669.3z"/>
				<linearGradient id="XMLID_581_" gradientUnits="userSpaceOnUse" x1="1112.3036" y1="656.2994" x2="1175.6508" y2="656.2994">
					<stop  offset="0" style="stop-color:#C2636B"/>
					<stop  offset="1" style="stop-color:#FEC5A7"/>
				</linearGradient>
				<path id="XMLID_417_" class="st27" d="M1175.7,631.7c-17.2,18-39.4,30.8-63.3,37.5c0,0,0,0,0,0c0.6,4,2,8,3.9,11.5
					C1140.2,670.5,1161.3,653.6,1175.7,631.7z"/>
			</g>
		</g>
		<polygon id="XMLID_3_" class="st4" points="842.6,176.8 1156.3,195.6 967.6,619.5 319.8,527.4 		"/>
		<g id="XMLID_443_">
			<path id="XMLID_408_" class="st28" d="M632.5,358.1c0,0-1.1-0.5-3.1-1.5c-1-0.5-2.2-1.1-3.6-1.7c-1.4-0.6-3-1.3-4.7-2
				c-1.7-0.7-3.6-1.5-5.6-2.2c-1-0.4-2-0.8-3.1-1.1c-1.1-0.4-2.2-0.7-3.3-1.1c-2.2-0.7-4.5-1.4-6.9-2.1c-2.4-0.7-4.8-1.2-7.2-1.8
				c-2.4-0.5-4.9-1.1-7.3-1.4c-2.4-0.4-4.8-0.8-7.1-1.1c-1.2-0.1-2.3-0.3-3.4-0.4c-1.1-0.1-2.2-0.3-3.3-0.3c-2.1-0.2-4.2-0.3-6-0.4
				c-1.9-0.1-3.6-0.2-5.1-0.2c-1.5,0-2.9-0.1-4,0c-2.2,0-3.5,0-3.5,0s1.2-0.2,3.4-0.4c1.1-0.1,2.4-0.2,4-0.4
				c0.8-0.1,1.6-0.1,2.4-0.2c0.9,0,1.8,0,2.7-0.1c0.9,0,1.9-0.1,3,0c1,0,2.1,0.1,3.2,0.1c2.2,0,4.5,0.2,6.8,0.4
				c2.4,0.3,4.8,0.5,7.3,0.9c2.5,0.4,4.9,0.9,7.4,1.4c2.5,0.6,4.9,1.2,7.3,1.9c2.4,0.7,4.7,1.5,7,2.3c2.2,0.8,4.4,1.6,6.4,2.6
				c1,0.4,2,0.9,2.9,1.3c0.9,0.4,1.8,0.9,2.7,1.3c0.8,0.4,1.7,0.8,2.4,1.2c0.8,0.4,1.5,0.8,2.1,1.2c1.3,0.8,2.5,1.4,3.4,2
				C631.4,357.4,632.5,358.1,632.5,358.1z"/>
			<path id="XMLID_425_" class="st28" d="M618.7,361.7c0,0-2-0.1-5.6-0.4c-1.8-0.1-3.9-0.2-6.4-0.4c-2.5-0.1-5.3-0.2-8.3-0.3
				c-1.5,0-3.1-0.1-4.8-0.1c-1.6,0-3.3,0-5.1,0c-1.7,0-3.5,0-5.4,0.1c-1.8,0-3.7,0.1-5.6,0.1c-3.8,0.1-7.7,0.4-11.7,0.6
				c-4,0.3-8,0.6-12.1,1.1c-4,0.4-8.1,0.9-12,1.5c-2,0.3-3.9,0.6-5.9,0.9c-1.9,0.3-3.8,0.7-5.7,1c-3.7,0.7-7.4,1.4-10.8,2.2
				c-3.4,0.7-6.6,1.5-9.6,2.3c-2.9,0.8-5.6,1.7-7.8,2.7c-2.3,1-4.2,2-5.7,2.9c-1.5,0.9-2.6,1.8-3.4,2.4c-0.7,0.6-1.1,0.9-1.1,0.9
				s0.4-0.4,1.1-1c0.7-0.6,1.8-1.6,3.2-2.6c1.5-1,3.3-2.2,5.6-3.3c2.2-1.1,4.9-2.2,7.8-3.1c2.9-1,6.1-1.9,9.5-2.7
				c3.4-0.9,7-1.7,10.8-2.5c1.9-0.4,3.8-0.7,5.7-1.1c1.9-0.3,3.9-0.7,5.9-1c4-0.6,8-1.2,12.1-1.6c4.1-0.4,8.1-0.8,12.2-1
				c2-0.2,4-0.2,6-0.3c2-0.1,3.9-0.1,5.8-0.2c1.9,0,3.8-0.1,5.6,0c1.8,0,3.6,0,5.4,0.1c1.8,0.1,3.5,0.1,5.1,0.2
				c1.6,0.1,3.2,0.2,4.8,0.3c3.1,0.2,5.9,0.5,8.3,0.7c2.5,0.3,4.6,0.5,6.4,0.8C616.6,361.4,618.7,361.7,618.7,361.7z"/>
			<path id="XMLID_436_" class="st28" d="M621.5,368.7c0,0-1.5,0.1-4.1,0.3c-1.3,0-2.9,0.2-4.7,0.3c-0.9,0.1-1.9,0.2-2.9,0.3
				c-1,0.1-2.1,0.2-3.2,0.4c-2.2,0.2-4.6,0.6-7.1,1c-1.3,0.2-2.5,0.4-3.9,0.6c-1.3,0.2-2.7,0.5-4,0.7c-2.7,0.6-5.5,1.1-8.3,1.9
				c-2.8,0.6-5.7,1.5-8.5,2.3c-2.8,0.9-5.7,1.7-8.4,2.7c-2.8,0.9-5.4,2-8,3c-1.3,0.5-2.5,1.1-3.8,1.6c-1.2,0.5-2.4,1-3.6,1.6
				c-2.3,1.1-4.5,2.1-6.5,3.1c-1,0.5-2,1-2.9,1.4c-0.9,0.5-1.7,0.9-2.5,1.3c-1.6,0.8-3,1.6-4.1,2.2c-2.3,1.3-3.6,2-3.6,2
				s1.2-0.9,3.3-2.4c1.1-0.8,2.4-1.6,3.9-2.6c0.8-0.5,1.6-1,2.4-1.6c0.9-0.5,1.8-1,2.8-1.6c1-0.5,2-1.2,3-1.7
				c1.1-0.6,2.2-1.1,3.3-1.7c1.1-0.6,2.3-1.2,3.6-1.7c1.2-0.6,2.5-1.1,3.8-1.7c2.6-1.1,5.3-2.2,8-3.2c2.8-1,5.6-1.9,8.5-2.8
				c2.9-0.8,5.8-1.6,8.6-2.2c2.9-0.7,5.7-1.2,8.5-1.7c1.4-0.2,2.7-0.4,4.1-0.6c1.3-0.2,2.6-0.4,3.9-0.5c1.3-0.1,2.5-0.3,3.7-0.4
				c1.2-0.1,2.4-0.1,3.5-0.2c1.1-0.1,2.2-0.1,3.2-0.2c1,0,2,0,2.9,0c1.8,0,3.4,0,4.7,0C620,368.6,621.5,368.7,621.5,368.7z"/>
		</g>
		<polygon id="XMLID_428_" class="st12" points="645.9,451.5 673.5,429.3 732.1,489.2 694.4,498.6 		"/>
		<path id="XMLID_522_" class="st12" d="M922.2,523.2c-13-9.6-26.1-17.2-39.1-26.8c3.4,16.1,1,33.3-6.7,47.8
			c-7.7,14.5-20.5,26.3-35.7,32.5c15.7,5.2,31.6,11.7,47.4,16.9c19.4-16.1,31.7-40.8,35.6-65.7L922.2,523.2z"/>
		<g id="XMLID_2_">
			<linearGradient id="XMLID_582_" gradientUnits="userSpaceOnUse" x1="746.4039" y1="449.0513" x2="708.986" y2="712.4314">
				<stop  offset="0" style="stop-color:#434D61"/>
				<stop  offset="9.333425e-002" style="stop-color:#465065"/>
				<stop  offset="0.1903" style="stop-color:#4D5972"/>
				<stop  offset="0.2889" style="stop-color:#5A6786"/>
				<stop  offset="0.388" style="stop-color:#6B7CA3"/>
				<stop  offset="0.449" style="stop-color:#788BB9"/>
				<stop  offset="1" style="stop-color:#484A5F"/>
			</linearGradient>
			<path id="XMLID_25_" class="st29" d="M913.2,535.5c73.6-19.7,129.5-5.4,195.2-44.2c-4.5,0-8.9,0.1-13.4,0.1
				c2.5-4.1,7.4-8.7,11.3-11.5c-40.7,15.5-85.7,14.9-129,10.3c-43.3-4.6-86.3-13.1-129.9-12.7c-64.7-10.1-133.1-0.4-198.2-7.6
				c-23.7-2.6-47.1-7.6-69.8-15c-5.7-1.8-11.5-3.9-16-7.9c-3.9-3.4-6.5-7.9-9.1-12.3c-10.9-18.8-21.8-37.5-32.7-56.3
				c-0.2,5.3-10,9.9-13.4,5.4c-0.9,19.9-1.7,40.2,3.7,59.3c5.4,19.2,18.1,37.4,36.8,44.2c13.5,4.9,70.8,10.3,84.8,12.3
				c-33.6,8.4-68.5,17.2-102.8,22.7c-20.5,3.3-43.2,7.2-55.8,23.8c-11.8,15.5-10.5,37-8.5,56.4c3.5,33.3,7.4,68.2-5.5,99.1
				c-37.5,19-83.3,32.5-124.5,41.4c13,2.3,26.5,2.4,39.6,0.3c-12.6,5.6-24.2,13.2-34.4,22.5c59.3-14.9,117.4-34.6,173.5-58.9
				c5.2-2.2,10.6-4.7,13.9-9.3c3.9-5.4,3.9-12.6,3.8-19.3c-0.3-17.9-0.5-35.8-0.8-53.6c-0.1-4.7-0.1-9.6,2.4-13.6
				c2.2-3.7,6.2-5.9,10-7.9c32.1-16.9,61.1-2.7,96.6-10.2c5-1.1,10.2-2,15.1-0.9c5.4,1.2,9.9,4.8,14.2,8.2
				c7.6,6.1,15.3,12.2,22.9,18.2c4.8,3.8,9.8,7.8,12.9,13.1c4.6,7.7,4.9,17.3,5,26.3c0.4,31,4.8,39-17.1,60.8
				c-12.3,12.3-29.3,18.3-45.3,25C614,758.3,581,777.4,551,800.4c15.7-3.6,31.9-8.4,47.6-12c-10,11.5-18.1,24.7-23.7,38.9
				c64.4-31,131.2-57.1,199.6-77.9c14.5-4.4,29.9-9,40.4-20c13.6-14.1,16.2-35.4,15.6-54.9c-0.6-19.5-3.5-39.5,1.8-58.4
				C840.9,585.5,913.2,535.5,913.2,535.5z"/>
			<path id="XMLID_47_" class="st30" d="M775,489c10,4,23-9,36-13c2-0.7,3.9-1.3,5.9-2c-18.1-1.3-36.4-1.6-54.8-1.5
				C765.3,480.2,768.7,487.3,775,489z"/>
			<path id="XMLID_34_" class="st31" d="M820.6,474.3c-1.2-0.1-2.5-0.2-3.7-0.3c-2,0.7-3.9,1.3-5.9,2c-13,4-26,17-36,13l14.5,16.7
				L820.6,474.3z"/>
			<path id="XMLID_43_" class="st31" d="M775,489c-6.3-1.7-9.7-8.8-12.9-16.5c-1.5,0-3,0-4.5,0l-12,19.8L775,489z"/>
			<path id="XMLID_457_" class="st3" d="M555,536c-5-1-12-2-17-3c-13.2-2-26.1-2.9-38.9-3.5c-9.5,3.5-18,8.5-24,16.5
				c-11.8,15.5-10.5,37-8.5,56.4c3.5,33.3,7.4,68.2-5.5,99.1c-37.5,19-83.3,32.5-124.5,41.4c0,8.3,1.4,15,5.2,22.9
				c59.3-14.9,117.4-34.6,173.5-58.9c5.2-2.2,10.6-4.7,13.9-9.3c3.9-5.4,3.9-12.6,3.8-19.3c-0.3-17.9-0.5-35.8-0.8-53.6
				c-0.1-4.7-0.1-9.6,2.4-13.6c2.2-3.7,6.2-5.9,10-7.9c32.1-16.9,61.1-2.7,96.6-10.2c5-1.1,10.2-2,15.1-0.9
				c5.4,1.2,9.9,4.8,14.2,8.2c7.6,6.1,15.3,12.2,22.9,18.2c4.8,3.8,9.8,7.8,12.9,13.1c4.6,7.7,4.9,17.3,5,26.3
				c0.4,31,4.8,39-17.1,60.8c-12.3,12.3-29.3,18.3-45.3,25C614,758.3,581,777.4,551,800.4c-5.3,15.9,15.3,30.1,23.9,26.9
				c64.4-31,131.2-57.1,199.6-77.9c14.5-4.4,29.9-9,40.4-20c13.6-14.1,16.2-35.4,15.6-54.9c-0.6-19.5-3.5-39.5,1.8-58.4
				c2.9-10.5,13.4-23.3,25.8-35.5c-47.3-4.8-96.7-2.1-144.1-8.7C659,564,610,543,555,536z"/>
			<path id="XMLID_465_" class="st28" d="M724,565c-12.6-1.4-24.9-3.8-37.2-6.6c-2.4,2.1-4.4,4.6-6.4,7.2c11,2.5,22.2,4.8,33.6,6.4
				c4.3,0.6,8.7,1.1,13,1.5c2.8-2.7,5.7-5.2,8.7-7.5C731.8,565.7,727.9,565.4,724,565z"/>
			<path id="XMLID_480_" class="st32" d="M872.8,567.1c-45.9-2.9-91.1,2.2-137.1-1.1c-3.1,2.3-6,4.9-8.7,7.5
				c43.3,4.5,88.1,2.8,131.1,7.1C862.8,576,867.8,571.4,872.8,567.1z"/>
			<path id="XMLID_478_" class="st32" d="M686.8,558.4c-52-12.1-101.9-33.8-155.4-36.2c-0.2,0-0.5,0.1-0.7,0.1
				c-10.5,1.7-21.7,3.6-31.7,7.2c12.8,0.5,25.7,1.5,38.9,3.5c5,1,12,2,17,3c43.6,5.5,83.4,19.9,125.4,29.6
				C682.4,563,684.4,560.5,686.8,558.4z"/>
			<path id="XMLID_476_" class="st33" d="M1108.4,491.3c-4.5,0-6-8.6-2.1-11.4c-40.7,15.5-85.7,14.9-129,10.3s-86.3-13.1-129.9-12.7
				c-8.9-1.4-17.9-2.4-26.9-3.1l-31.1,31.3l-2-2.3c-20,18.7-42.4,34.8-65.5,49.7c8-21.5,16.9-42.1,28.7-61.2l-5,0.6l12-19.8
				c-36.4,0.2-72.9,1.3-108.4-2.6c-23.7-2.6-47.1-7.6-69.8-15c-5.7-1.8-11.5-3.9-16-7.9c-3.9-3.4-6.5-7.9-9.1-12.3
				c-10.9-18.8-21.8-37.5-32.7-56.3c-0.2,5.3-10,9.9-13.4,5.4c-0.9,19.9-1.7,40.2,3.7,59.3c5.4,19.2,18.1,37.4,36.8,44.2
				c13.5,4.9,70.8,10.3,84.8,12.3c-33.4,8.4-68.1,17.1-102.1,22.6c66.1,2.9,126.6,35.3,192.5,42.8c50,5.1,99-1.1,148.8,2.1
				c20.3-17.6,40.4-31.5,40.4-31.5C986.9,515.8,1042.8,530.1,1108.4,491.3z"/>
			<path id="XMLID_462_" class="st30" d="M787.5,503.3L775,489l-24.3,2.8C738.9,510.9,730,531.5,722,553
				C745.1,538.2,767.4,522,787.5,503.3z"/>
			<g id="XMLID_207_">
				<polygon id="XMLID_406_" class="st34" points="757.9,490.9 757.9,490.9 775,489 				"/>
				<path id="XMLID_473_" class="st35" d="M782.5,498l-7.5-9l-17.1,1.9v11.6l-20.3,13.3c-5.8,12-10.9,24.5-15.6,37.2
					c16-10.3,31.7-21.2,46.4-33.2l0.8-11.6L782.5,498z"/>
			</g>
			<polygon id="XMLID_423_" class="st36" points="757.6,472.5 722.5,488.9 727,505.7 718,505.7 722,553 			"/>
			<path id="XMLID_49_" class="st36" d="M820.6,474.3c0,0-74.7,62.3-98.6,78.7l83.2-39.3l-5.3-10.2l25.4-6L820.6,474.3z"/>
		</g>
		<g id="XMLID_7_">
			<g id="XMLID_9_">
				<path id="XMLID_15_" class="st37" d="M635,228.7l-7.1-0.5c-7.5-0.5-14.8,15.6-16.2,36.1c-1.5,20.5,3.4,37.5,10.9,38.1l7.1,0.5
					c7.5,0.5,14.8-15.6,16.2-36.1C647.4,246.3,642.5,229.2,635,228.7z"/>
				<path id="XMLID_32_" class="st38" d="M635.4,258.3l-0.7,9l-23.2-1.7c0-0.4,0.1-0.9,0.1-1.3c0.2-2.6,0.5-5.2,0.9-7.7L635.4,258.3
					z"/>
				<path id="XMLID_31_" class="st38" d="M635.8,252.8l-0.2,2.9L613,254c0.2-1,0.4-1.9,0.6-2.8L635.8,252.8z"/>
				
					<ellipse id="XMLID_10_" transform="matrix(0.9974 7.222796e-002 -7.222796e-002 0.9974 20.8797 -45.2541)" class="st39" cx="636.2" cy="266.1" rx="6.1" ry="27.8"/>
				<g id="XMLID_13_">
					<path id="XMLID_16_" class="st40" d="M634.1,243.8c-1.8,5-3.3,12.9-4,21.9s-0.3,17,0.8,22.2c1.8-5,3.3-12.9,4-21.9
						C635.5,257,635.2,248.9,634.1,243.8z"/>
				</g>
			</g>
			<g id="XMLID_11_">
				<path id="XMLID_36_" class="st37" d="M658.3,230.4l-7.1-0.5c-7.5-0.5-14.8,15.6-16.2,36.1c-1.5,20.5,3.4,37.5,10.9,38.1l7.1,0.5
					c7.5,0.5,14.8-15.6,16.2-36.1C670.6,248,665.7,230.9,658.3,230.4z"/>
				<path id="XMLID_30_" class="st38" d="M658.7,260l-0.7,9l-23.2-1.7c0-0.4,0.1-0.9,0.1-1.3c0.2-2.6,0.5-5.2,0.9-7.7L658.7,260z"/>
				<path id="XMLID_23_" class="st38" d="M659.1,254.5l-0.2,2.9l-22.7-1.6c0.2-1,0.4-1.9,0.6-2.8L659.1,254.5z"/>
				
					<ellipse id="XMLID_19_" transform="matrix(0.9974 7.222796e-002 -7.222796e-002 0.9974 21.0618 -46.9263)" class="st39" cx="659.4" cy="267.8" rx="6.1" ry="27.8"/>
				<g id="XMLID_12_">
					<path id="XMLID_14_" class="st40" d="M657.3,245.5c-1.8,5-3.3,12.9-4,21.9c-0.7,9-0.3,17,0.8,22.2c1.8-5,3.3-12.9,4-21.9
						S658.4,250.6,657.3,245.5z"/>
				</g>
			</g>
			<g id="XMLID_39_">
				<path id="XMLID_51_" class="st37" d="M681.5,232.1l-7.1-0.5c-7.5-0.5-14.8,15.6-16.2,36.1c-1.5,20.5,3.4,37.5,10.9,38.1l7.1,0.5
					c7.5,0.5,14.8-15.6,16.2-36.1S689,232.6,681.5,232.1z"/>
				<path id="XMLID_48_" class="st38" d="M681.9,261.6l-0.7,9L658,269c0-0.4,0.1-0.9,0.1-1.3c0.2-2.6,0.5-5.2,0.9-7.7L681.9,261.6z"
					/>
				<path id="XMLID_45_" class="st38" d="M682.3,256.2l-0.2,2.9l-22.7-1.6c0.2-1,0.4-1.9,0.6-2.8L682.3,256.2z"/>
				
					<ellipse id="XMLID_44_" transform="matrix(0.9974 7.222796e-002 -7.222796e-002 0.9974 21.2438 -48.5984)" class="st39" cx="682.6" cy="269.4" rx="6.1" ry="27.8"/>
				<g id="XMLID_40_">
					<path id="XMLID_41_" class="st40" d="M680.5,247.1c-1.8,5-3.3,12.9-4,21.9c-0.7,9-0.3,17,0.8,22.2c1.8-5,3.3-12.9,4-21.9
						C682,260.4,681.6,252.3,680.5,247.1z"/>
				</g>
			</g>
			<g id="XMLID_54_">
				<path id="XMLID_66_" class="st37" d="M704.7,233.7l-7.1-0.5c-7.5-0.5-14.8,15.6-16.2,36.1s3.4,37.5,10.9,38.1l7.1,0.5
					c7.5,0.5,14.8-15.6,16.2-36.1C717,251.3,712.2,234.3,704.7,233.7z"/>
				<path id="XMLID_63_" class="st38" d="M705.1,263.3l-0.7,9l-23.2-1.7c0-0.4,0.1-0.9,0.1-1.3c0.2-2.6,0.5-5.2,0.9-7.7L705.1,263.3
					z"/>
				<path id="XMLID_60_" class="st38" d="M705.5,257.8l-0.2,2.9l-22.7-1.6c0.2-1,0.4-1.9,0.6-2.8L705.5,257.8z"/>
				
					<ellipse id="XMLID_59_" transform="matrix(0.9974 7.222796e-002 -7.222796e-002 0.9974 21.4259 -50.2706)" class="st39" cx="705.8" cy="271.1" rx="6.1" ry="27.8"/>
				<g id="XMLID_55_">
					<path id="XMLID_56_" class="st40" d="M703.7,248.8c-1.8,5-3.3,12.9-4,21.9s-0.3,17,0.8,22.2c1.8-5,3.3-12.9,4-21.9
						S704.8,254,703.7,248.8z"/>
				</g>
			</g>
			<g id="XMLID_69_">
				<path id="XMLID_81_" class="st37" d="M727.9,235.4l-7.1-0.5c-7.5-0.5-14.8,15.6-16.2,36.1s3.4,37.5,10.9,38.1l7.1,0.5
					c7.5,0.5,14.8-15.6,16.2-36.1C740.2,253,735.4,236,727.9,235.4z"/>
				<path id="XMLID_78_" class="st38" d="M728.3,265l-0.7,9l-23.2-1.7c0-0.4,0.1-0.9,0.1-1.3c0.2-2.6,0.5-5.2,0.9-7.7L728.3,265z"/>
				<path id="XMLID_75_" class="st38" d="M728.7,259.5l-0.2,2.9l-22.7-1.6c0.2-1,0.4-1.9,0.6-2.8L728.7,259.5z"/>
				
					<ellipse id="XMLID_74_" transform="matrix(0.9974 7.222796e-002 -7.222796e-002 0.9974 21.6079 -51.9428)" class="st39" cx="729" cy="272.8" rx="6.1" ry="27.8"/>
				<g id="XMLID_70_">
					<path id="XMLID_71_" class="st40" d="M726.9,250.5c-1.8,5-3.3,12.9-4,21.9s-0.3,17,0.8,22.2c1.8-5,3.3-12.9,4-21.9
						S728,255.7,726.9,250.5z"/>
				</g>
			</g>
			<g id="XMLID_84_">
				<path id="XMLID_96_" class="st37" d="M751.1,237.1l-7.1-0.5c-7.5-0.5-14.8,15.6-16.2,36.1c-1.5,20.5,3.4,37.5,10.9,38.1l7.1,0.5
					c7.5,0.5,14.8-15.6,16.2-36.1C763.5,254.7,758.6,237.7,751.1,237.1z"/>
				<path id="XMLID_93_" class="st38" d="M751.5,266.7l-0.7,9l-23.2-1.7c0-0.4,0.1-0.9,0.1-1.3c0.2-2.6,0.5-5.2,0.9-7.7L751.5,266.7
					z"/>
				<path id="XMLID_90_" class="st38" d="M751.9,261.2l-0.2,2.9l-22.7-1.6c0.2-1,0.4-1.9,0.6-2.8L751.9,261.2z"/>
				
					<ellipse id="XMLID_89_" transform="matrix(0.9974 7.222796e-002 -7.222796e-002 0.9974 21.7899 -53.615)" class="st39" cx="752.2" cy="274.5" rx="6.1" ry="27.8"/>
				<g id="XMLID_85_">
					<path id="XMLID_86_" class="st40" d="M750.1,252.2c-1.8,5-3.3,12.9-4,21.9s-0.3,17,0.8,22.2c1.8-5,3.3-12.9,4-21.9
						C751.6,265.4,751.2,257.3,750.1,252.2z"/>
				</g>
			</g>
			<g id="XMLID_99_">
				<path id="XMLID_111_" class="st37" d="M774.3,238.8l-7.1-0.5c-7.5-0.5-14.8,15.6-16.2,36.1c-1.5,20.5,3.4,37.5,10.9,38.1
					l7.1,0.5c7.5,0.5,14.8-15.6,16.2-36.1C786.7,256.4,781.8,239.3,774.3,238.8z"/>
				<path id="XMLID_108_" class="st38" d="M774.7,268.4l-0.7,9l-23.2-1.7c0-0.4,0.1-0.9,0.1-1.3c0.2-2.6,0.5-5.2,0.9-7.7
					L774.7,268.4z"/>
				<path id="XMLID_105_" class="st38" d="M775.1,262.9l-0.2,2.9l-22.7-1.6c0.2-1,0.4-1.9,0.6-2.8L775.1,262.9z"/>
				
					<ellipse id="XMLID_104_" transform="matrix(0.9974 7.222796e-002 -7.222796e-002 0.9974 21.972 -55.2872)" class="st39" cx="775.4" cy="276.2" rx="6.1" ry="27.8"/>
				<g id="XMLID_100_">
					<path id="XMLID_101_" class="st40" d="M773.3,253.9c-1.8,5-3.3,12.9-4,21.9c-0.7,9-0.3,17,0.8,22.2c1.8-5,3.3-12.9,4-21.9
						C774.8,267.1,774.4,259,773.3,253.9z"/>
				</g>
			</g>
			<g id="XMLID_114_">
				<path id="XMLID_126_" class="st37" d="M797.5,240.5l-7.1-0.5c-7.5-0.5-14.8,15.6-16.2,36.1c-1.5,20.5,3.4,37.5,10.9,38.1
					l7.1,0.5c7.5,0.5,14.8-15.6,16.2-36.1S805,241,797.5,240.5z"/>
				<path id="XMLID_123_" class="st38" d="M797.9,270l-0.7,9l-23.2-1.7c0-0.4,0.1-0.9,0.1-1.3c0.2-2.6,0.5-5.2,0.9-7.7L797.9,270z"
					/>
				<path id="XMLID_120_" class="st38" d="M798.3,264.6l-0.2,2.9l-22.7-1.6c0.2-1,0.4-1.9,0.6-2.8L798.3,264.6z"/>
				
					<ellipse id="XMLID_119_" transform="matrix(0.9974 7.222796e-002 -7.222796e-002 0.9974 22.154 -56.9593)" class="st39" cx="798.7" cy="277.8" rx="6.1" ry="27.8"/>
				<g id="XMLID_115_">
					<path id="XMLID_116_" class="st40" d="M796.6,255.5c-1.8,5-3.3,12.9-4,21.9c-0.7,9-0.3,17,0.8,22.2c1.8-5,3.3-12.9,4-21.9
						S797.7,260.7,796.6,255.5z"/>
				</g>
			</g>
			<g id="XMLID_129_">
				<path id="XMLID_141_" class="st37" d="M820.7,242.2l-7.1-0.5c-7.5-0.5-14.8,15.6-16.2,36.1c-1.5,20.5,3.4,37.5,10.9,38.1
					l7.1,0.5c7.5,0.5,14.8-15.6,16.2-36.1C833.1,259.7,828.2,242.7,820.7,242.2z"/>
				<path id="XMLID_138_" class="st38" d="M821.1,271.7l-0.7,9l-23.2-1.7c0-0.4,0.1-0.9,0.1-1.3c0.2-2.6,0.5-5.2,0.9-7.7
					L821.1,271.7z"/>
				<path id="XMLID_135_" class="st38" d="M821.5,266.2l-0.2,2.9l-22.7-1.6c0.2-1,0.4-1.9,0.6-2.8L821.5,266.2z"/>
				
					<ellipse id="XMLID_134_" transform="matrix(0.9974 7.222796e-002 -7.222796e-002 0.9974 22.3361 -58.6315)" class="st39" cx="821.9" cy="279.5" rx="6.1" ry="27.8"/>
				<g id="XMLID_130_">
					<path id="XMLID_131_" class="st40" d="M819.8,257.2c-1.8,5-3.3,12.9-4,21.9c-0.7,9-0.3,17,0.8,22.2c1.8-5,3.3-12.9,4-21.9
						S820.9,262.4,819.8,257.2z"/>
				</g>
			</g>
			<g id="XMLID_144_">
				<path id="XMLID_156_" class="st37" d="M844,243.8l-7.1-0.5c-7.5-0.5-14.8,15.6-16.2,36.1c-1.5,20.5,3.4,37.5,10.9,38.1l7.1,0.5
					c7.5,0.5,14.8-15.6,16.2-36.1C856.3,261.4,851.4,244.4,844,243.8z"/>
				<path id="XMLID_153_" class="st38" d="M844.4,273.4l-0.7,9l-23.2-1.7c0-0.4,0.1-0.9,0.1-1.3c0.2-2.6,0.5-5.2,0.9-7.7
					L844.4,273.4z"/>
				<path id="XMLID_150_" class="st38" d="M844.7,267.9l-0.2,2.9l-22.7-1.6c0.2-1,0.4-1.9,0.6-2.8L844.7,267.9z"/>
				
					<ellipse id="XMLID_149_" transform="matrix(0.9974 7.222796e-002 -7.222796e-002 0.9974 22.5181 -60.3037)" class="st39" cx="845.1" cy="281.2" rx="6.1" ry="27.8"/>
				<g id="XMLID_145_">
					<path id="XMLID_146_" class="st40" d="M843,258.9c-1.8,5-3.3,12.9-4,21.9c-0.7,9-0.3,17,0.8,22.2c1.8-5,3.3-12.9,4-21.9
						S844.1,264.1,843,258.9z"/>
				</g>
			</g>
			<g id="XMLID_159_">
				<path id="XMLID_171_" class="st37" d="M867.2,245.5L860,245c-7.5-0.5-14.8,15.6-16.2,36.1s3.4,37.5,10.9,38.1l7.1,0.5
					c7.5,0.5,14.8-15.6,16.2-36.1C879.5,263.1,874.7,246.1,867.2,245.5z"/>
				<path id="XMLID_168_" class="st38" d="M867.6,275.1l-0.7,9l-23.2-1.7c0-0.4,0.1-0.9,0.1-1.3c0.2-2.6,0.5-5.2,0.9-7.7
					L867.6,275.1z"/>
				<path id="XMLID_165_" class="st38" d="M868,269.6l-0.2,2.9l-22.7-1.6c0.2-1,0.4-1.9,0.6-2.8L868,269.6z"/>
				
					<ellipse id="XMLID_164_" transform="matrix(0.9974 7.222796e-002 -7.222796e-002 0.9974 22.7001 -61.9759)" class="st39" cx="868.3" cy="282.9" rx="6.1" ry="27.8"/>
				<g id="XMLID_160_">
					<path id="XMLID_161_" class="st40" d="M866.2,260.6c-1.8,5-3.3,12.9-4,21.9s-0.3,17,0.8,22.2c1.8-5,3.3-12.9,4-21.9
						S867.3,265.7,866.2,260.6z"/>
				</g>
			</g>
			<g id="XMLID_174_">
				<path id="XMLID_186_" class="st37" d="M890.4,247.2l-7.1-0.5c-7.5-0.5-14.8,15.6-16.2,36.1c-1.5,20.5,3.4,37.5,10.9,38.1
					l7.1,0.5c7.5,0.5,14.8-15.6,16.2-36.1C902.7,264.8,897.9,247.7,890.4,247.2z"/>
				<path id="XMLID_183_" class="st38" d="M890.8,276.8l-0.7,9l-23.2-1.7c0-0.4,0.1-0.9,0.1-1.3c0.2-2.6,0.5-5.2,0.9-7.7
					L890.8,276.8z"/>
				<path id="XMLID_180_" class="st38" d="M891.2,271.3l-0.2,2.9l-22.7-1.6c0.2-1,0.4-1.9,0.6-2.8L891.2,271.3z"/>
				
					<ellipse id="XMLID_179_" transform="matrix(0.9974 7.222796e-002 -7.222796e-002 0.9974 22.8822 -63.648)" class="st39" cx="891.5" cy="284.6" rx="6.1" ry="27.8"/>
				<g id="XMLID_175_">
					<path id="XMLID_176_" class="st40" d="M889.4,262.3c-1.8,5-3.3,12.9-4,21.9s-0.3,17,0.8,22.2c1.8-5,3.3-12.9,4-21.9
						C890.9,275.5,890.5,267.4,889.4,262.3z"/>
				</g>
			</g>
			<g id="XMLID_189_">
				<path id="XMLID_201_" class="st37" d="M913.6,248.9l-7.1-0.5c-7.5-0.5-14.8,15.6-16.2,36.1c-1.5,20.5,3.4,37.5,10.9,38.1
					l7.1,0.5c7.5,0.5,14.8-15.6,16.2-36.1C925.9,266.5,921.1,249.4,913.6,248.9z"/>
				<path id="XMLID_198_" class="st38" d="M914,278.4l-0.7,9l-23.2-1.7c0-0.4,0.1-0.9,0.1-1.3c0.2-2.6,0.5-5.2,0.9-7.7L914,278.4z"
					/>
				<path id="XMLID_195_" class="st38" d="M914.4,273l-0.2,2.9l-22.7-1.6c0.2-1,0.4-1.9,0.6-2.8L914.4,273z"/>
				
					<ellipse id="XMLID_194_" transform="matrix(0.9974 7.222796e-002 -7.222796e-002 0.9974 23.0642 -65.3202)" class="st39" cx="914.7" cy="286.2" rx="6.1" ry="27.8"/>
				<g id="XMLID_190_">
					<path id="XMLID_191_" class="st40" d="M912.6,263.9c-1.8,5-3.3,12.9-4,21.9s-0.3,17,0.8,22.2c1.8-5,3.3-12.9,4-21.9
						S913.7,269.1,912.6,263.9z"/>
				</g>
			</g>
			<g id="XMLID_204_">
				<path id="XMLID_216_" class="st37" d="M936.8,250.6l-7.1-0.5c-7.5-0.5-14.8,15.6-16.2,36.1c-1.5,20.5,3.4,37.5,10.9,38.1
					l7.1,0.5c7.5,0.5,14.8-15.6,16.2-36.1S944.3,251.1,936.8,250.6z"/>
				<path id="XMLID_213_" class="st38" d="M937.2,280.1l-0.7,9l-23.2-1.7c0-0.4,0.1-0.9,0.1-1.3c0.2-2.6,0.5-5.2,0.9-7.7
					L937.2,280.1z"/>
				<path id="XMLID_210_" class="st38" d="M937.6,274.7l-0.2,2.9l-22.7-1.6c0.2-1,0.4-1.9,0.6-2.8L937.6,274.7z"/>
				
					<ellipse id="XMLID_209_" transform="matrix(0.9974 7.222796e-002 -7.222796e-002 0.9974 23.2462 -66.9924)" class="st39" cx="937.9" cy="287.9" rx="6.1" ry="27.8"/>
				<g id="XMLID_205_">
					<path id="XMLID_206_" class="st40" d="M935.8,265.6c-1.8,5-3.3,12.9-4,21.9c-0.7,9-0.3,17,0.8,22.2c1.8-5,3.3-12.9,4-21.9
						C937.3,278.8,936.9,270.8,935.8,265.6z"/>
				</g>
			</g>
			<g id="XMLID_219_">
				<path id="XMLID_231_" class="st37" d="M960,252.2l-7.1-0.5c-7.5-0.5-14.8,15.6-16.2,36.1c-1.5,20.5,3.4,37.5,10.9,38.1l7.1,0.5
					c7.5,0.5,14.8-15.6,16.2-36.1C972.4,269.8,967.5,252.8,960,252.2z"/>
				<path id="XMLID_228_" class="st38" d="M960.4,281.8l-0.7,9l-23.2-1.7c0-0.4,0.1-0.9,0.1-1.3c0.2-2.6,0.5-5.2,0.9-7.7
					L960.4,281.8z"/>
				<path id="XMLID_225_" class="st38" d="M960.8,276.3l-0.2,2.9l-22.7-1.6c0.2-1,0.4-1.9,0.6-2.8L960.8,276.3z"/>
				
					<ellipse id="XMLID_224_" transform="matrix(0.9974 7.222796e-002 -7.222796e-002 0.9974 23.4283 -68.6646)" class="st39" cx="961.1" cy="289.6" rx="6.1" ry="27.8"/>
				<g id="XMLID_220_">
					<path id="XMLID_221_" class="st40" d="M959,267.3c-1.8,5-3.3,12.9-4,21.9s-0.3,17,0.8,22.2c1.8-5,3.3-12.9,4-21.9
						S960.1,272.5,959,267.3z"/>
				</g>
			</g>
			<g id="XMLID_234_">
				<path id="XMLID_246_" class="st37" d="M983.2,253.9l-7.1-0.5c-7.5-0.5-14.8,15.6-16.2,36.1s3.4,37.5,10.9,38.1l7.1,0.5
					c7.5,0.5,14.8-15.6,16.2-36.1C995.6,271.5,990.7,254.5,983.2,253.9z"/>
				<path id="XMLID_243_" class="st38" d="M983.6,283.5l-0.7,9l-23.2-1.7c0-0.4,0.1-0.9,0.1-1.3c0.2-2.6,0.5-5.2,0.9-7.7
					L983.6,283.5z"/>
				<path id="XMLID_240_" class="st38" d="M984,278l-0.2,2.9l-22.7-1.6c0.2-1,0.4-1.9,0.6-2.8L984,278z"/>
				
					<ellipse id="XMLID_239_" transform="matrix(0.9974 7.222796e-002 -7.222796e-002 0.9974 23.6103 -70.3367)" class="st39" cx="984.3" cy="291.3" rx="6.1" ry="27.8"/>
				<g id="XMLID_235_">
					<path id="XMLID_236_" class="st40" d="M982.3,269c-1.8,5-3.3,12.9-4,21.9s-0.3,17,0.8,22.2c1.8-5,3.3-12.9,4-21.9
						S983.4,274.2,982.3,269z"/>
				</g>
			</g>
			<g id="XMLID_249_">
				<path id="XMLID_261_" class="st37" d="M1006.4,255.6l-7.1-0.5c-7.5-0.5-14.8,15.6-16.2,36.1s3.4,37.5,10.9,38.1l7.1,0.5
					c7.5,0.5,14.8-15.6,16.2-36.1C1018.8,273.2,1013.9,256.1,1006.4,255.6z"/>
				<path id="XMLID_258_" class="st38" d="M1006.8,285.2l-0.7,9l-23.2-1.7c0-0.4,0.1-0.9,0.1-1.3c0.2-2.6,0.5-5.2,0.9-7.7
					L1006.8,285.2z"/>
				<path id="XMLID_255_" class="st38" d="M1007.2,279.7l-0.2,2.9l-22.7-1.6c0.2-1,0.4-1.9,0.6-2.8L1007.2,279.7z"/>
				
					<ellipse id="XMLID_254_" transform="matrix(0.9974 7.222796e-002 -7.222796e-002 0.9974 23.7924 -72.0089)" class="st39" cx="1007.6" cy="293" rx="6.1" ry="27.8"/>
				<g id="XMLID_250_">
					<path id="XMLID_251_" class="st40" d="M1005.5,270.7c-1.8,5-3.3,12.9-4,21.9s-0.3,17,0.8,22.2c1.8-5,3.3-12.9,4-21.9
						C1006.9,283.9,1006.6,275.8,1005.5,270.7z"/>
				</g>
			</g>
			<g id="XMLID_264_">
				<path id="XMLID_276_" class="st37" d="M1029.7,257.3l-7.1-0.5c-7.5-0.5-14.8,15.6-16.2,36.1c-1.5,20.5,3.4,37.5,10.9,38.1
					l7.1,0.5c7.5,0.5,14.8-15.6,16.2-36.1C1042,274.9,1037.1,257.8,1029.7,257.3z"/>
				<path id="XMLID_273_" class="st38" d="M1030.1,286.8l-0.7,9l-23.2-1.7c0-0.4,0.1-0.9,0.1-1.3c0.2-2.6,0.5-5.2,0.9-7.7
					L1030.1,286.8z"/>
				<path id="XMLID_270_" class="st38" d="M1030.4,281.4l-0.2,2.9l-22.7-1.6c0.2-1,0.4-1.9,0.6-2.8L1030.4,281.4z"/>
				
					<ellipse id="XMLID_269_" transform="matrix(0.9974 7.222796e-002 -7.222796e-002 0.9974 23.9744 -73.6811)" class="st39" cx="1030.8" cy="294.7" rx="6.1" ry="27.8"/>
				<g id="XMLID_265_">
					<path id="XMLID_266_" class="st40" d="M1028.7,272.3c-1.8,5-3.3,12.9-4,21.9c-0.7,9-0.3,17,0.8,22.2c1.8-5,3.3-12.9,4-21.9
						C1030.1,285.6,1029.8,277.5,1028.7,272.3z"/>
				</g>
			</g>
			<g id="XMLID_279_">
				<path id="XMLID_291_" class="st37" d="M1052.9,259l-7.1-0.5c-7.5-0.5-14.8,15.6-16.2,36.1c-1.5,20.5,3.4,37.5,10.9,38.1l7.1,0.5
					c7.5,0.5,14.8-15.6,16.2-36.1S1060.4,259.5,1052.9,259z"/>
				<path id="XMLID_288_" class="st38" d="M1053.3,288.5l-0.7,9l-23.2-1.7c0-0.4,0.1-0.9,0.1-1.3c0.2-2.6,0.5-5.2,0.9-7.7
					L1053.3,288.5z"/>
				<path id="XMLID_285_" class="st38" d="M1053.7,283.1l-0.2,2.9l-22.7-1.6c0.2-1,0.4-1.9,0.6-2.8L1053.7,283.1z"/>
				
					<ellipse id="XMLID_284_" transform="matrix(0.9974 7.222796e-002 -7.222796e-002 0.9974 24.1564 -75.3533)" class="st39" cx="1054" cy="296.3" rx="6.1" ry="27.8"/>
				<g id="XMLID_280_">
					<path id="XMLID_281_" class="st40" d="M1051.9,274c-1.8,5-3.3,12.9-4,21.9c-0.7,9-0.3,17,0.8,22.2c1.8-5,3.3-12.9,4-21.9
						C1053.4,287.2,1053,279.2,1051.9,274z"/>
				</g>
			</g>
			<g id="XMLID_294_">
				<path id="XMLID_306_" class="st37" d="M1076.1,260.6l-7.1-0.5c-7.5-0.5-14.8,15.6-16.2,36.1c-1.5,20.5,3.4,37.5,10.9,38.1
					l7.1,0.5c7.5,0.5,14.8-15.6,16.2-36.1C1088.4,278.2,1083.6,261.2,1076.1,260.6z"/>
				<path id="XMLID_303_" class="st38" d="M1076.5,290.2l-0.7,9l-23.2-1.7c0-0.4,0.1-0.9,0.1-1.3c0.2-2.6,0.5-5.2,0.9-7.7
					L1076.5,290.2z"/>
				<path id="XMLID_300_" class="st38" d="M1076.9,284.7l-0.2,2.9L1054,286c0.2-1,0.4-1.9,0.6-2.8L1076.9,284.7z"/>
				
					<ellipse id="XMLID_299_" transform="matrix(0.9974 7.222796e-002 -7.222796e-002 0.9974 24.3385 -77.0255)" class="st39" cx="1077.2" cy="298" rx="6.1" ry="27.8"/>
				<g id="XMLID_295_">
					<path id="XMLID_296_" class="st40" d="M1075.1,275.7c-1.8,5-3.3,12.9-4,21.9c-0.7,9-0.3,17,0.8,22.2c1.8-5,3.3-12.9,4-21.9
						C1076.6,288.9,1076.2,280.9,1075.1,275.7z"/>
				</g>
			</g>
			<g id="XMLID_309_">
				<path id="XMLID_321_" class="st37" d="M1099.3,262.3l-7.1-0.5c-7.5-0.5-14.8,15.6-16.2,36.1c-1.5,20.5,3.4,37.5,10.9,38.1
					l7.1,0.5c7.5,0.5,14.8-15.6,16.2-36.1S1106.8,262.9,1099.3,262.3z"/>
				<path id="XMLID_318_" class="st38" d="M1099.7,291.9l-0.7,9l-23.2-1.7c0-0.4,0.1-0.9,0.1-1.3c0.2-2.6,0.5-5.2,0.9-7.7
					L1099.7,291.9z"/>
				<path id="XMLID_315_" class="st38" d="M1100.1,286.4l-0.2,2.9l-22.7-1.6c0.2-1,0.4-1.9,0.6-2.8L1100.1,286.4z"/>
				
					<ellipse id="XMLID_314_" transform="matrix(0.9974 7.222796e-002 -7.222796e-002 0.9974 24.5205 -78.6976)" class="st39" cx="1100.4" cy="299.7" rx="6.1" ry="27.8"/>
				<g id="XMLID_310_">
					<path id="XMLID_311_" class="st40" d="M1098.3,277.4c-1.8,5-3.3,12.9-4,21.9c-0.7,9-0.3,17,0.8,22.2c1.8-5,3.3-12.9,4-21.9
						C1099.8,290.6,1099.4,282.6,1098.3,277.4z"/>
				</g>
			</g>
			<g id="XMLID_324_">
				<path id="XMLID_336_" class="st37" d="M1122.5,264l-7.1-0.5c-7.5-0.5-14.8,15.6-16.2,36.1c-1.5,20.5,3.4,37.5,10.9,38.1l7.1,0.5
					c7.5,0.5,14.8-15.6,16.2-36.1S1130,264.5,1122.5,264z"/>
				<path id="XMLID_333_" class="st38" d="M1122.9,293.6l-0.7,9l-23.2-1.7c0-0.4,0.1-0.9,0.1-1.3c0.2-2.6,0.5-5.2,0.9-7.7
					L1122.9,293.6z"/>
				<path id="XMLID_330_" class="st38" d="M1123.3,288.1l-0.2,2.9l-22.7-1.6c0.2-1,0.4-1.9,0.6-2.8L1123.3,288.1z"/>
				
					<ellipse id="XMLID_329_" transform="matrix(0.9974 7.222796e-002 -7.222796e-002 0.9974 24.7026 -80.3698)" class="st39" cx="1123.6" cy="301.4" rx="6.1" ry="27.8"/>
				<g id="XMLID_325_">
					<path id="XMLID_326_" class="st40" d="M1121.5,279.1c-1.8,5-3.3,12.9-4,21.9c-0.7,9-0.3,17,0.8,22.2c1.8-5,3.3-12.9,4-21.9
						C1123,292.3,1122.6,284.2,1121.5,279.1z"/>
				</g>
			</g>
			<g id="XMLID_339_">
				<path id="XMLID_351_" class="st37" d="M1145.7,265.7l-7.1-0.5c-7.5-0.5-14.8,15.6-16.2,36.1c-1.5,20.5,3.4,37.5,10.9,38.1
					l7.1,0.5c7.5,0.5,14.8-15.6,16.2-36.1C1158.1,283.3,1153.2,266.2,1145.7,265.7z"/>
				<path id="XMLID_348_" class="st38" d="M1146.1,295.3l-0.7,9l-23.2-1.7c0-0.4,0.1-0.9,0.1-1.3c0.2-2.6,0.5-5.2,0.9-7.7
					L1146.1,295.3z"/>
				<path id="XMLID_345_" class="st38" d="M1146.5,289.8l-0.2,2.9l-22.7-1.6c0.2-1,0.4-1.9,0.6-2.8L1146.5,289.8z"/>
				
					<ellipse id="XMLID_344_" transform="matrix(0.9974 7.222796e-002 -7.222796e-002 0.9974 24.8846 -82.042)" class="st39" cx="1146.8" cy="303.1" rx="6.1" ry="27.8"/>
				<g id="XMLID_340_">
					<path id="XMLID_341_" class="st40" d="M1144.7,280.8c-1.8,5-3.3,12.9-4,21.9s-0.3,17,0.8,22.2c1.8-5,3.3-12.9,4-21.9
						C1146.2,294,1145.8,285.9,1144.7,280.8z"/>
				</g>
			</g>
		</g>
		<g id="XMLID_17_">
			<g id="XMLID_584_">
				<g id="XMLID_585_">
					<path id="XMLID_586_" class="st41" d="M887.3,568.5c-32.5,1.7-64.2-3.5-91.9-8l-348.7-56.6c-12.5-2-35.8-5.8-44.5-24.6
						c-9.3-20,0.3-48.6,21-62.4c112.9-75.7,143.1-117.2,167.4-150.5c17-23.3,33-45.3,71.2-71.8c5.9-4.1,13.6-3.1,17.2,2.2
						c3.6,5.3,1.8,12.9-4,16.9c-34.2,23.7-47.5,42-64.4,65.1C585,314,553.2,357.8,436,436.3c-9.7,6.5-15.1,22.1-10.8,31.4
						c3.4,7.4,15.5,10.3,28,12.4L802,536.7c42.1,6.8,94.5,15.4,139.8-3.9c35.3-15,67-47.8,89.2-92.4c14.6-29.3,24.5-61.2,34.1-92
						c3.6-11.5,7.3-23.5,11.2-35.2c12.9-38.7,26-62,63.1-99.9c5-5.1,12.9-5.7,17.7-1.4c4.8,4.3,4.6,11.9-0.3,17
						c-33.2,33.9-44.7,53.6-56.7,89.5c-3.8,11.5-7.5,23.3-11,34.7c-9.9,31.8-20.1,64.7-35.6,95.9c-25.2,50.5-61.9,88-103.5,105.7
						C929.3,563.5,908.2,567.4,887.3,568.5z"/>
				</g>
			</g>
		</g>
		<g id="XMLID_18_">
			<g id="XMLID_57_">
				<path id="XMLID_68_" class="st28" d="M453.2,480c0,0,13.9,2.1,38.3,5.7c12.2,1.8,27,4.1,43.9,6.6c17,2.6,36.1,5.4,56.9,8.7
					c20.9,3.2,43.4,6.8,67.3,10.5c23.9,3.7,49.1,7.6,75.1,11.8c26,4.1,53,8.4,80.3,12.8c13.6,2.1,27.4,4,41.3,5
					c13.9,1,27.8,1.1,41.6-0.3c13.8-1.4,27.4-4.4,40.2-9.5l2.4-0.9l2.3-1.1c1.6-0.7,3.2-1.4,4.7-2.2c3-1.6,6-3.1,8.9-4.9
					c3-1.7,5.8-3.7,8.6-5.5c1.4-0.9,2.8-2,4.1-3c1.4-1,2.8-2,4-3.1c10.6-8.6,20.2-18.3,28.5-28.8c8.4-10.5,15.7-21.6,22.1-33
					c1.6-2.8,3.1-5.8,4.6-8.6c1.4-2.9,2.9-5.8,4.2-8.7c2.7-5.8,5.3-11.7,7.7-17.5c4.8-11.7,9-23.3,12.8-34.8
					c3.9-11.4,7.4-22.6,10.9-33.5c3.5-10.8,6.9-21.3,10.2-31.3c3.4-10,6.9-19.6,10.9-28.4c4-8.8,8.4-16.9,13.1-24.1
					c4.6-7.3,9.5-13.7,14.2-19.5c4.7-5.8,9.2-10.9,13.4-15.4c2.1-2.2,4.1-4.4,6-6.4c1.9-2,3.7-3.8,5.4-5.5c0.9-0.8,1.6-1.7,2.5-2.4
					c0.8-0.8,1.7-1.4,2.6-1.9c1.8-1,3.6-1.5,5.3-1.7c3.3-0.4,5.9,0.6,7.3,1.4c0.7,0.4,1.3,0.8,1.6,1.1c0.3,0.3,0.5,0.4,0.5,0.4
					s-0.2-0.1-0.5-0.4c-0.3-0.3-0.9-0.6-1.6-1c-1.5-0.8-4-1.6-7.3-1.2c-1.6,0.2-3.4,0.8-5.1,1.8c-0.8,0.5-1.7,1.1-2.5,1.9
					c-0.8,0.7-1.6,1.6-2.4,2.5c-1.6,1.7-3.4,3.6-5.2,5.6c-1.8,2-3.8,4.2-5.8,6.5c-4,4.6-8.5,9.8-13,15.6
					c-4.5,5.8-9.2,12.3-13.6,19.6c-4.4,7.3-8.6,15.3-12.4,24.1c-3.8,8.8-7.2,18.2-10.4,28.3c-3.1,10.1-6.4,20.6-9.8,31.4
					c-3.3,10.8-6.7,22.1-10.4,33.7c-3.7,11.5-7.8,23.3-12.5,35.2c-1.2,3-2.4,5.9-3.6,8.9c-1.3,3-2.6,5.9-4,8.9
					c-1.4,3-2.8,5.9-4.2,8.9c-1.5,2.9-3,5.9-4.6,8.8c-6.4,11.7-13.8,23.1-22.3,33.9c-8.5,10.8-18.2,20.9-29.2,29.7
					c-1.3,1.1-2.8,2.2-4.2,3.2c-1.4,1-2.8,2.2-4.3,3.1c-2.9,2-5.8,4-8.9,5.8c-3,1.9-6.2,3.5-9.4,5.2c-1.6,0.8-3.2,1.5-4.8,2.2
					l-1.2,0.5l-0.6,0.3l-0.3,0.1c0,0-0.3,0.1-0.4,0.2l-2.5,1c-13.3,5.3-27.4,8.5-41.6,10c-14.2,1.4-28.5,1.2-42.6,0.2
					c-14.1-1-28-3-41.7-5.1c-13.7-2.2-27.2-4.5-40.6-6.7c-13.4-2.2-26.6-4.4-39.6-6.6c-26-4.3-51.2-8.6-75-12.6
					c-23.8-4-46.4-7.8-67.2-11.4c-20.8-3.5-39.9-6.8-56.8-9.7c-16.9-2.9-31.6-5.5-43.7-7.6C467.1,482.5,453.2,480,453.2,480z"/>
			</g>
			<g id="XMLID_42_">
				<path id="XMLID_53_" class="st28" d="M402.2,479.3c0,0-0.2-0.4-0.5-1.1c-0.3-0.7-0.8-1.8-1.3-3.2c-1-2.9-2.2-7.4-2.2-13.2
					c-0.1-5.8,0.9-12.9,3.9-20.5c3-7.5,7.9-15.6,15.6-22.2c3.9-3.3,8.1-6.1,12.4-9.2c4.3-3,8.8-6.2,13.4-9.4
					c4.5-3.3,9.2-6.7,14-10.1c4.8-3.4,9.5-7.1,14.5-10.8c4.9-3.6,9.8-7.5,14.8-11.4c5-3.8,9.9-7.9,14.9-11.9c1.2-1,2.5-2,3.7-3
					c1.2-1,2.5-2.1,3.7-3.1c2.5-2.1,4.9-4.2,7.4-6.3c2.5-2.1,4.8-4.3,7.3-6.5c2.4-2.2,4.9-4.3,7.2-6.6l7.1-6.7
					c2.3-2.3,4.6-4.6,6.9-6.8c2.3-2.3,4.5-4.6,6.7-7c1.1-1.2,2.2-2.3,3.3-3.5c1.1-1.2,2.1-2.4,3.2-3.6c1.1-1.2,2.1-2.4,3.2-3.6
					c1.1-1.2,2.1-2.4,3.1-3.6c2.1-2.4,4.1-4.8,6.1-7.2c2-2.4,3.9-4.8,5.8-7.3c1-1.2,1.9-2.4,2.8-3.7c0.9-1.2,1.9-2.5,2.8-3.7
					c7.3-9.8,14.3-19.4,21.4-28.2c7.1-8.8,14.4-16.7,21.6-23.4c7.2-6.8,14.2-12.5,20.6-17.3c0.8-0.6,1.6-1.2,2.4-1.8
					c0.8-0.6,1.6-1.1,2.3-1.7c1.5-1.1,3-2.1,4.4-3.1c1.4-1,2.8-1.9,4.1-2.8c0.7-0.4,1.3-0.9,1.9-1.3c0.3-0.2,0.6-0.4,1-0.6
					c0.3-0.2,0.6-0.4,0.9-0.6c2.7-1.4,5.3-1.8,7.6-1.7c2.3,0.2,4.1,0.9,5.4,1.7c1.3,0.8,2.1,1.7,2.6,2.3c0.5,0.6,0.7,1,0.7,1
					s-0.3-0.3-0.8-0.9c-0.6-0.5-1.4-1.4-2.7-2.1c-1.3-0.7-3.1-1.3-5.3-1.3c-2.2,0-4.7,0.5-7,1.9c-0.3,0.2-0.6,0.4-0.9,0.6
					c-0.3,0.2-0.6,0.4-0.9,0.6c-0.6,0.5-1.2,0.9-1.9,1.4c-1.3,0.9-2.6,1.9-4,3c-1.4,1.1-2.8,2.2-4.2,3.3c-0.7,0.6-1.5,1.2-2.2,1.7
					c-0.7,0.6-1.5,1.2-2.3,1.9c-6.1,5-12.9,11-19.7,17.9c-6.9,6.9-13.8,14.9-20.6,23.7c-6.8,8.8-13.5,18.6-20.8,28.5
					c-7.3,9.9-15.1,20-23.7,29.7c-1.1,1.2-2.2,2.4-3.2,3.6c-1.1,1.2-2.2,2.4-3.3,3.6c-2.2,2.4-4.4,4.8-6.8,7.1c-2.3,2.3-4.6,4.6-7,7
					l-7.2,6.8c-2.4,2.3-4.9,4.4-7.3,6.6c-2.5,2.2-4.9,4.4-7.4,6.5c-2.5,2.1-5,4.2-7.5,6.3c-1.2,1-2.5,2.1-3.7,3.1
					c-1.3,1-2.5,2-3.8,3c-5,4-10,8.1-15.1,11.9c-5,3.8-10,7.6-15,11.2c-2.5,1.8-5,3.6-7.4,5.4c-2.4,1.8-4.9,3.5-7.3,5.2
					c-4.9,3.4-9.6,6.6-14.3,9.9c-4.7,3.2-9.2,6.2-13.6,9.1c-4.4,2.9-8.8,5.6-12.5,8.6c-7.4,6-12.4,13.5-15.7,20.6
					c-3.1,7.2-4.5,14-4.7,19.7c-0.2,5.7,0.6,10.1,1.4,13c0.4,1.5,0.9,2.6,1.1,3.3C402.1,478.9,402.2,479.3,402.2,479.3z"/>
			</g>
		</g>
		<linearGradient id="XMLID_583_" gradientUnits="userSpaceOnUse" x1="728.2456" y1="302.0261" x2="831.4684" y2="302.0261">
			<stop  offset="0" style="stop-color:#788BB9"/>
			<stop  offset="1" style="stop-color:#484A5F"/>
		</linearGradient>
		<path id="XMLID_22_" class="st42" d="M823.2,302.6c3.2-9.8,8.8-19.2,8.2-29.5c-0.6-11.4-9.2-21.4-19.8-25.7
			c-10.6-4.3-22.7-3.5-33.5,0c-27.6,8.9-48.3,35.9-49.8,64.8c-0.2,4.4,0,8.9,1.8,12.9c2.2,4.7,6.4,8.1,10.4,11.4
			c12.4,9.9,25.6,20.2,41.4,22.6c12.8,2,26.5-3.2,33.9-14C824.3,332.6,818.6,316.8,823.2,302.6z"/>
		<linearGradient id="XMLID_587_" gradientUnits="userSpaceOnUse" x1="761.0814" y1="269.4152" x2="797.812" y2="370.9645">
			<stop  offset="0" style="stop-color:#FEC5A7"/>
			<stop  offset="1" style="stop-color:#C2636B"/>
		</linearGradient>
		<path id="XMLID_378_" class="st43" d="M813.3,330.1c-2.9-9.5-10.1-17.3-13.1-26.8c-4.6-14.6,1.4-31.1-4.1-45.4
			c-0.5-1.3-1.1-2.6-2.1-3.5c-3.1-2.8-7.9-0.8-11.4,1.4c-9.5,5.9-18.4,12.9-26.4,20.7c-6.8,6.7-13.2,14.3-15.9,23.5
			c-3.8,12.5,0.1,26.9,9.6,35.8c3.9,3.7,8.6,6.4,13.2,9.1c12.4,7.2,24.7,14.4,37.1,21.6c2.9,1.7,6.2,3.4,9.5,2.8
			C817.5,367.8,815.1,336.2,813.3,330.1z"/>
		<linearGradient id="XMLID_588_" gradientUnits="userSpaceOnUse" x1="913.9874" y1="342.4579" x2="1058.481" y2="342.4579">
			<stop  offset="0" style="stop-color:#788BB9"/>
			<stop  offset="1" style="stop-color:#484A5F"/>
		</linearGradient>
		<path id="XMLID_24_" class="st44" d="M1009.5,285c6.7-5.3,14.3-10.7,22.9-10.7c11,0,20.3,9.3,23.8,19.8
			c3.5,10.4,2.4,21.8,0.9,32.7c-2.6,19.5-6.7,39.8-19.4,54.8c-13.3,15.8-34,23.2-54.3,27c-17,3.3-37,4.2-51.1-7.6
			c-11.2-9.3-24.3-29.8-15.5-44c7.9-12.9,28.2-20,40-28.7C975.2,314.8,991.7,299.1,1009.5,285z"/>
		<path id="XMLID_83_" class="st45" d="M773.3,416.3c2.1-2.2,4.2-4.6,7-5.8c2.1-0.9,4.5-1,6.7-1c20.7,0.4,39.4,18.5,40.6,39.1
			c0.1,2,0.1,4.1-0.6,6.1c-2.1,5.7-8.9,7.8-14.9,8.5c-21.9,2.6-52.3-2.3-72.9-10.4c-13.4-5.3,2.8-10.3,9.4-15
			C757.6,431.6,765.8,424.3,773.3,416.3z"/>
		<linearGradient id="XMLID_589_" gradientUnits="userSpaceOnUse" x1="1059.8606" y1="330.3448" x2="923.7413" y2="393.0029">
			<stop  offset="0" style="stop-color:#FEC5A7"/>
			<stop  offset="1" style="stop-color:#C2636B"/>
		</linearGradient>
		<path id="XMLID_377_" class="st46" d="M961.8,366.3c13.1-8,24-19,34.8-29.8c7.9-7.9,15.7-15.8,23.6-23.7c3.6-3.6,7.4-7.4,12.2-9.3
			c4.8-1.9,10.9-1.5,14.3,2.3c2.5,2.7,3.2,6.6,3.4,10.3c1,16.6-5.1,32.7-11.1,48.3c-2.3,5.9-4.7,12-9,16.6c-4.2,4.6-10,7.5-15.8,9.7
			c-9.3,3.6-19,6.1-28.8,8.2c-12.7,2.7-25.9,4.9-38.6,2.2c-10.7-2.3-27.1-11.3-27.7-23.8C934.7,377.2,948.2,374.6,961.8,366.3z"/>
		<linearGradient id="XMLID_590_" gradientUnits="userSpaceOnUse" x1="608.7955" y1="407.0051" x2="934.6123" y2="407.0051">
			<stop  offset="0" style="stop-color:#788BB9"/>
			<stop  offset="1" style="stop-color:#484A5F"/>
		</linearGradient>
		<path id="XMLID_20_" class="st47" d="M893,469.3c20.5-27.4,41-57.8,41.6-92c0.1-8.1-0.9-16.5-4.7-23.7c-7.2-14-23-21.3-38.3-24.9
			c-44.2-10.5-93.3,3.5-125.3,35.8c-33-6.7-69.1-12.1-102.8-13.3c-16.1-0.6-32.9-0.4-47.5,6.4c-2.9,1.3-5.8,3.1-6.9,6.1
			c-1.7,4.4,1.5,9.1,4.7,12.6c20.5,22.3,49.8,34.5,79.2,41.5c29.4,7.1,59.8,9.7,89.3,16.4c10.7,2.4,22.8,6.7,26.7,17
			c-28.9-9.1-60.5-9.5-89.6-1.1c-2.8,0.8-6.1,2.5-6,5.4c31.6,10.7,62.6,24.2,95.6,29C842.3,489.2,873,496,893,469.3z"/>
		<linearGradient id="XMLID_591_" gradientUnits="userSpaceOnUse" x1="587.0076" y1="310.9157" x2="615.8159" y2="367.8121">
			<stop  offset="0" style="stop-color:#FEC5A7"/>
			<stop  offset="1" style="stop-color:#C2636B"/>
		</linearGradient>
		<path id="XMLID_26_" class="st48" d="M577.7,344.9c-2.7-2.9-5.3-6.4-4.8-10.3c0.2-1.7,0.9-3.3,1.8-4.8
			c6.2-11.3,17.1-19.9,29.5-23.3c2.5-0.7,5.3-1.1,7.5,0.3c2.3,1.4,3.1,4.3,3.8,6.9c3.5,13.9,7,27.9,10.5,41.8
			C633.5,385.8,585.3,353,577.7,344.9z"/>
		<linearGradient id="XMLID_592_" gradientUnits="userSpaceOnUse" x1="777.1027" y1="443.5872" x2="742.5328" y2="513.8075">
			<stop  offset="0" style="stop-color:#E56376"/>
			<stop  offset="1" style="stop-color:#FEC5A7"/>
		</linearGradient>
		<path id="XMLID_27_" class="st49" d="M807.4,450.6c0,0-15.7-18.2-33.5-14.7c-6-2.2-13.8-1.2-19.4,1.8c-5.6,3-10.2,7.7-13.8,12.9
			c-7.1,10.2-11.3,23-8.8,35.1c0.3,1.4,0.7,2.9,1.5,4.1c2.7,4.1,9.1,4.1,13.3,1.5c4.2-2.6,6.9-7,10-10.9
			C769.4,464.2,787.5,456.1,807.4,450.6z"/>
		<g id="XMLID_38_">
			
				<linearGradient id="XMLID_593_" gradientUnits="userSpaceOnUse" x1="489.5685" y1="302.4208" x2="520.027" y2="302.4208" gradientTransform="matrix(0.9982 6.079675e-002 -6.079675e-002 0.9982 19.8782 -20.9958)">
				<stop  offset="0" style="stop-color:#FEC5A7"/>
				<stop  offset="1" style="stop-color:#C2636B"/>
			</linearGradient>
			<path id="XMLID_371_" class="st50" d="M497.8,296.6c-2,0-4.3,0.1-5.8,1.5c-1.4,1.3-1.6,3.5-1,5.3c0.6,1.8,1.8,3.3,3.1,4.6
				c1.9,1.9,4,3.7,6.3,5.1c3.1,2,6.6,3.5,9.3,5.9c1.6,1.4,4.1,7,5.7,7.6c3.7,1.4,4.1-3.4,4.5-6.6
				C522.1,304.2,512.9,296.6,497.8,296.6z"/>
			
				<linearGradient id="XMLID_594_" gradientUnits="userSpaceOnUse" x1="488.7874" y1="310.4619" x2="517.4441" y2="310.4619" gradientTransform="matrix(0.9982 6.079675e-002 -6.079675e-002 0.9982 19.8782 -20.9958)">
				<stop  offset="0" style="stop-color:#FEC5A7"/>
				<stop  offset="1" style="stop-color:#C2636B"/>
			</linearGradient>
			<path id="XMLID_372_" class="st51" d="M506.5,332c1.5,0.9,3.1,1.8,4.8,1.5c15.5-2.5-4.6-27.1-13.8-27.9c-5.5-0.5-9.2,3.2-8.1,8.9
				C490.8,321.7,500.7,328.4,506.5,332z"/>
			<g id="XMLID_33_">
				<linearGradient id="XMLID_595_" gradientUnits="userSpaceOnUse" x1="379.9799" y1="81.104" x2="453.4762" y2="267.0948">
					<stop  offset="0" style="stop-color:#93989C"/>
					<stop  offset="9.682298e-002" style="stop-color:#AAAEB1"/>
					<stop  offset="0.2504" style="stop-color:#C9CBCD"/>
					<stop  offset="0.4119" style="stop-color:#E1E2E3"/>
					<stop  offset="0.5828" style="stop-color:#F2F2F3"/>
					<stop  offset="0.7691" style="stop-color:#FCFCFC"/>
					<stop  offset="1" style="stop-color:#FFFFFF"/>
				</linearGradient>
				<path id="XMLID_376_" class="st52" d="M323.7,292.4c59.9,7.4,127.2-105.3,187.1-97.9c2.4-39.3,4.8-78.6,7.2-117.9
					c-59.9-7.4-127.2,105.3-187.1,97.9C328.5,213.8,326.1,253.1,323.7,292.4z"/>
				
					<rect id="XMLID_375_" x="507.6" y="70.7" transform="matrix(0.9982 6.079675e-002 -6.079675e-002 0.9982 13.9759 -30.5849)" class="st37" width="3.9" height="287.3"/>
			</g>
			
				<linearGradient id="XMLID_596_" gradientUnits="userSpaceOnUse" x1="498.5344" y1="340.267" x2="527.2045" y2="340.267" gradientTransform="matrix(0.9982 6.079675e-002 -6.079675e-002 0.9982 19.8782 -20.9958)">
				<stop  offset="0" style="stop-color:#FEC5A7"/>
				<stop  offset="1" style="stop-color:#C2636B"/>
			</linearGradient>
			<path id="XMLID_369_" class="st53" d="M523.1,339.6c2.4-7.4,5.9-15.4,2.6-22.4c-2.9-6.1-10-8.9-16.3-10.7
				c-1.2-0.4-2.5-0.5-3.7-0.4c-5.6,0.7-5.6,6-3.2,9c1.6,2.1,4.1,3.3,6.5,4.4c-8,3.1-12.9,12.5-10.8,20.8c1.4,5.9,5.8,10.6,7.8,16.3
				c1.7,4.7,1.8,9.7,2,14.7c0.4,9.9-0.2,10.7,0.6,16.3c0.6,4.4,5,7.2,9.1,5.8c0.1,0,0.2-0.1,0.3-0.1c3.7-1.4,5.8-5.4,4.9-9.2
				c-0.4-1.8-0.9-4.1-1.6-7.1C518.7,364.5,519.3,351.6,523.1,339.6z"/>
		</g>
		<g id="XMLID_439_">
			<path id="XMLID_394_" class="st28" d="M697.7,368.2c0,0,2.6-0.1,7.1-0.3c1.1,0,2.4-0.1,3.7-0.1c1.4,0,2.8,0,4.4,0
				c1.6,0,3.3,0,5,0c1.8,0.1,3.6,0.2,5.6,0.3c1.9,0.1,4,0.2,6,0.4c2.1,0.2,4.2,0.4,6.4,0.7c2.2,0.2,4.5,0.5,6.8,0.9
				c2.3,0.3,4.7,0.7,7.1,1.1c4.8,0.9,9.7,1.8,14.6,3c5,1.1,10,2.5,15,3.8c4.9,1.5,9.9,3,14.7,4.7c4.8,1.6,9.5,3.4,14.1,5
				c4.5,1.8,8.9,3.4,13,5.2c2,0.9,4,1.7,5.9,2.5c1.9,0.8,3.8,1.7,5.5,2.5c1.8,0.8,3.5,1.5,5.1,2.3c1.6,0.8,3.1,1.5,4.5,2.2
				c2.8,1.3,5.3,2.5,7.3,3.5c4,2,6.3,3.2,6.3,3.2s-2.4-1-6.5-2.8c-2.1-0.9-4.6-2-7.5-3.2c-2.9-1.2-6.2-2.6-9.7-4.1
				c-1.8-0.7-3.6-1.5-5.6-2.3c-1.9-0.8-3.9-1.5-6-2.4c-2.1-0.8-4.2-1.6-6.4-2.4c-2.2-0.8-4.4-1.6-6.7-2.5c-4.6-1.6-9.2-3.3-14.1-4.8
				c-4.8-1.6-9.7-3-14.7-4.5c-5-1.4-9.9-2.8-14.8-3.9c-4.9-1.3-9.8-2.2-14.5-3.2c-2.4-0.5-4.7-0.8-7-1.2c-2.3-0.4-4.5-0.8-6.7-1.1
				c-2.2-0.3-4.3-0.6-6.4-0.9c-2.1-0.3-4.1-0.4-6-0.6c-1.9-0.2-3.8-0.3-5.5-0.5c-1.8-0.1-3.4-0.2-5-0.3c-1.6-0.1-3-0.2-4.4-0.2
				c-1.4-0.1-2.6,0-3.7-0.1C700.3,368.2,697.7,368.2,697.7,368.2z"/>
			<path id="XMLID_396_" class="st28" d="M704.4,382c0,0,2.4,0.6,6.5,1.7c1,0.3,2.2,0.6,3.4,0.9c1.2,0.4,2.6,0.8,4,1.2
				c1.4,0.4,3,0.9,4.6,1.4c1.6,0.5,3.3,1.1,5,1.7c1.7,0.6,3.6,1.2,5.4,1.9c1.9,0.7,3.8,1.4,5.8,2.2c1,0.4,2,0.7,3,1.2
				c1,0.4,2,0.8,3,1.3c2,0.9,4.1,1.7,6.3,2.7c4.2,1.9,8.5,3.9,12.8,6.1c4.4,2.1,8.6,4.6,13,6.9c4.2,2.5,8.5,5,12.5,7.6
				c4.1,2.5,8,5.3,11.8,7.9c1.9,1.3,3.7,2.7,5.5,4c0.9,0.7,1.8,1.3,2.6,2c0.9,0.7,1.7,1.3,2.5,2c1.7,1.3,3.3,2.6,4.8,3.8
				c1.5,1.3,3,2.5,4.4,3.7c1.4,1.2,2.8,2.3,4,3.5c1.2,1.1,2.4,2.2,3.5,3.2c1.1,1,2.1,2,3.1,2.9c0.9,0.9,1.8,1.7,2.5,2.5
				c3,3,4.8,4.8,4.8,4.8s-1.8-1.6-5.1-4.5c-0.8-0.7-1.7-1.5-2.7-2.4c-1-0.8-2.1-1.7-3.2-2.7c-1.1-1-2.4-2-3.6-3.1
				c-1.3-1-2.7-2.1-4.1-3.3c-1.4-1.1-2.9-2.4-4.5-3.5c-1.6-1.2-3.2-2.4-4.9-3.7c-0.8-0.6-1.7-1.3-2.6-1.9c-0.9-0.6-1.8-1.3-2.7-1.9
				c-1.8-1.3-3.6-2.6-5.5-3.9c-3.8-2.5-7.7-5.2-11.8-7.7c-4-2.6-8.3-5-12.5-7.5c-4.3-2.4-8.5-4.8-12.8-6.9
				c-4.3-2.2-8.5-4.3-12.7-6.2c-2.1-1-4.2-1.8-6.2-2.8c-1-0.5-2-0.9-3-1.3c-1-0.4-2-0.8-3-1.2c-1.9-0.8-3.8-1.6-5.7-2.3
				c-1.8-0.8-3.6-1.4-5.3-2.1c-1.7-0.7-3.4-1.3-4.9-1.9c-1.6-0.6-3.1-1.1-4.5-1.6c-1.4-0.5-2.7-1-3.9-1.4c-1.2-0.4-2.4-0.8-3.4-1.1
				C706.7,382.8,704.4,382,704.4,382z"/>
			<path id="XMLID_402_" class="st28" d="M701.4,393.7c0,0,0.3,0.1,1,0.4c0.6,0.3,1.6,0.6,2.8,1.3c1.2,0.6,2.6,1.3,4.3,2.2
				c0.8,0.5,1.6,1,2.5,1.5c0.9,0.6,1.8,1.2,2.7,1.8c1.8,1.3,3.8,2.8,5.8,4.6c2,1.7,4,3.6,6,5.7c2,2.1,3.9,4.3,5.8,6.7
				c1.8,2.4,3.6,4.9,5.3,7.4c1.6,2.5,3.2,5.2,4.7,7.8c1.5,2.6,2.8,5.3,4.1,7.8c2.5,5.1,4.6,10,6.3,14.3c1.7,4.2,3,7.8,3.9,10.3
				c0.9,2.5,1.4,3.9,1.4,3.9s-0.7-1.4-1.8-3.8c-1.1-2.4-2.7-5.8-4.7-9.9c-1.9-4.1-4.2-8.9-6.8-13.9c-1.3-2.5-2.7-5.1-4.2-7.6
				c-1.5-2.6-3-5.1-4.7-7.7c-1.6-2.5-3.4-5-5.2-7.3c-1.8-2.3-3.6-4.6-5.5-6.7c-1.9-2.1-3.8-4.1-5.6-5.8c-1.9-1.8-3.7-3.4-5.5-4.8
				c-0.9-0.7-1.8-1.3-2.6-2c-0.8-0.6-1.6-1.2-2.4-1.7c-1.5-1-2.9-1.9-4-2.6c-1.1-0.7-2.1-1.2-2.7-1.5
				C701.7,393.9,701.4,393.7,701.4,393.7z"/>
		</g>
		<path id="XMLID_448_" class="st28" d="M592.6,318c-1.1,1.2-2.3,2.4-2.9,4c-0.3,0.7-0.3,1.7,0.4,2c0.3,0.1,0.7,0.1,1-0.1
			c1.6-0.5,2.9-1.7,4.2-2.8c2-1.5,4.2-2.8,6.7-3.2s5.2,0.2,6.9,2c1.3,1.3,2,3.2,3.5,4.2c-0.7-4.4-1.1-13.4-7-14.1
			C600.8,309.5,595.5,315,592.6,318z"/>
		<path id="XMLID_453_" class="st54" d="M890.4,365.1c-0.7,0.1-1.5,0.2-2.5,0.3c-1,0.1-2.1,0.3-3.2,0.6c-1.2,0.2-2.4,0.5-3.8,0.9
			c-1.3,0.3-2.7,0.7-4.2,1.2c-1.4,0.5-2.9,0.9-4.4,1.5c-0.6,0.2-1.2,0.5-1.8,0.7c-0.2-0.4-0.4-0.8-0.6-1.1c-0.8-1.3-1.6-2.6-2.4-3.8
			c-0.8-1.2-1.6-2.4-2.4-3.4c-0.8-1.1-1.5-2.1-2.3-3c-1.4-1.8-2.7-3.3-3.6-4.3c-0.9-1-1.4-1.6-1.4-1.6s0.3,0.7,0.9,1.9
			c0.6,1.2,1.4,3,2.5,5c0.5,1,1.1,2.1,1.8,3.3c0.6,1.1,1.3,2.4,2,3.6c0.7,1.2,1.4,2.6,2.1,3.9c0.1,0.3,0.3,0.5,0.4,0.8
			c-1.3,0.6-2.7,1.2-4,1.9c-1.4,0.7-2.8,1.5-4.1,2.2c-1.3,0.7-2.5,1.5-3.7,2.2c-1.2,0.7-2.2,1.5-3.2,2.2c-1,0.7-1.9,1.4-2.6,2
			c-0.8,0.6-1.4,1.1-1.9,1.6c-1.1,0.9-1.6,1.5-1.6,1.5s0.7-0.3,2-0.9c1.2-0.6,3-1.5,5.2-2.5c1.1-0.5,2.2-1.1,3.4-1.7
			c1.2-0.6,2.5-1.2,3.8-1.8c1.3-0.6,2.7-1.2,4.1-1.9c1.3-0.6,2.7-1.2,4.1-1.8c0.1,0.1,0.1,0.2,0.2,0.3c0.7,1.4,1.3,2.7,1.9,4.1
			c0.6,1.4,1.2,2.7,1.7,4c0.5,1.3,1,2.6,1.5,3.8c0.4,1.2,0.9,2.4,1.3,3.5c0.7,2.2,1.4,4,1.8,5.3c0.5,1.3,0.8,2,0.8,2s0-0.8-0.1-2.1
			c-0.1-0.7-0.1-1.5-0.2-2.4c-0.1-0.9-0.2-2-0.4-3.2c-0.2-1.1-0.4-2.4-0.7-3.7c-0.2-0.7-0.3-1.3-0.5-2c-0.2-0.7-0.4-1.4-0.6-2.1
			c-0.2-0.7-0.4-1.4-0.7-2.1c-0.2-0.7-0.5-1.4-0.8-2.2c-0.6-1.4-1.2-2.9-1.9-4.3c0,0-0.1-0.1-0.1-0.1c1.9-0.8,3.8-1.6,5.6-2.3
			c1.4-0.5,2.7-1.1,3.9-1.6c1.3-0.5,2.5-1,3.6-1.4c2.2-0.9,4.1-1.6,5.4-2.1c1.3-0.5,2-0.8,2-0.8S891.8,365,890.4,365.1z"/>
		<path id="XMLID_451_" class="st54" d="M815.4,352.9c-0.5,0-1,0.1-1.6,0.2c-0.6,0.1-1.4,0.2-2.1,0.4c-0.8,0.1-1.6,0.3-2.5,0.6
			c-0.9,0.2-1.8,0.5-2.7,0.8c-0.9,0.3-1.9,0.6-2.9,1c-0.4,0.1-0.8,0.3-1.2,0.5c-0.1-0.2-0.3-0.5-0.4-0.7c-0.5-0.9-1.1-1.7-1.6-2.5
			c-0.5-0.8-1.1-1.5-1.6-2.3c-0.5-0.7-1-1.4-1.5-2c-0.9-1.2-1.8-2.2-2.3-2.9c-0.6-0.7-0.9-1.1-0.9-1.1s0.2,0.5,0.6,1.3
			c0.4,0.8,0.9,2,1.7,3.3c0.4,0.7,0.7,1.4,1.2,2.2c0.4,0.8,0.9,1.6,1.3,2.4c0.5,0.8,0.9,1.7,1.4,2.5c0.1,0.2,0.2,0.4,0.3,0.5
			c-0.9,0.4-1.8,0.8-2.6,1.2c-0.9,0.4-1.8,1-2.7,1.4c-0.9,0.5-1.7,1-2.4,1.5c-0.8,0.5-1.5,1-2.1,1.4c-0.6,0.4-1.2,0.9-1.7,1.3
			c-0.5,0.4-0.9,0.7-1.3,1.1c-0.7,0.6-1.1,1-1.1,1s0.5-0.2,1.3-0.6c0.8-0.4,2-1,3.4-1.6c0.7-0.3,1.5-0.7,2.3-1.1
			c0.8-0.4,1.6-0.8,2.5-1.2c0.9-0.4,1.8-0.8,2.7-1.2c0.9-0.4,1.8-0.8,2.7-1.2c0,0.1,0.1,0.1,0.1,0.2c0.4,0.9,0.9,1.8,1.3,2.7
			c0.4,0.9,0.8,1.8,1.1,2.6c0.3,0.9,0.7,1.7,1,2.5c0.3,0.8,0.6,1.6,0.8,2.3c0.5,1.4,0.9,2.6,1.2,3.5c0.3,0.8,0.5,1.3,0.5,1.3
			s0-0.5-0.1-1.4c0-0.4-0.1-1-0.2-1.6c-0.1-0.6-0.2-1.3-0.3-2.1c-0.1-0.8-0.3-1.6-0.5-2.4c-0.1-0.4-0.2-0.9-0.3-1.3
			c-0.1-0.5-0.3-0.9-0.4-1.4c-0.1-0.5-0.3-0.9-0.5-1.4c-0.2-0.5-0.3-1-0.5-1.4c-0.4-1-0.8-1.9-1.3-2.8c0,0,0-0.1,0-0.1
			c1.3-0.5,2.5-1.1,3.7-1.5c0.9-0.4,1.8-0.7,2.6-1c0.8-0.3,1.6-0.6,2.3-0.9c1.5-0.6,2.7-1,3.5-1.4c0.9-0.3,1.3-0.5,1.3-0.5
			S816.3,352.8,815.4,352.9z"/>
		<g id="XMLID_458_">
			<circle id="XMLID_517_" class="st13" cx="313.4" cy="590.1" r="33.6"/>
			<circle id="XMLID_516_" class="st14" cx="310.9" cy="590.9" r="33.6"/>
			<circle id="XMLID_513_" class="st13" cx="310.9" cy="590.9" r="26.9"/>
			<circle id="XMLID_510_" class="st15" cx="310.9" cy="590.9" r="24.9"/>
			<g id="XMLID_460_">
				<path id="XMLID_461_" class="st13" d="M315.3,606.6l-1.5-3.5c-2.5,0.9-5.2,1.3-6.9,1.1l-0.7-4.8c1.9,0.2,4.4,0,6.8-1
					c2.1-0.9,3.2-2.3,2.5-3.8c-0.6-1.4-2.1-1.8-5.2-1.5c-4.5,0.4-7.9-0.3-9.5-3.9c-1.4-3.2-0.2-6.7,3.4-9.2l-1.5-3.5l3.6-1.5
					l1.4,3.2c2.5-0.9,4.4-1.1,5.8-1.1l0.7,4.6c-1.1,0-3.2-0.1-5.8,1c-2.4,1-2.7,2.4-2.3,3.4c0.5,1.2,2.1,1.4,5.7,1.3
					c5-0.3,7.6,0.9,9,4.2c1.4,3.3,0.3,7-3.6,9.6l1.6,3.7L315.3,606.6z"/>
			</g>
		</g>
		<g id="XMLID_494_">
			<circle id="XMLID_532_" class="st13" cx="332.2" cy="630.4" r="27.1"/>
			<circle id="XMLID_531_" class="st14" cx="331" cy="628.6" r="27.1"/>
			<circle id="XMLID_530_" class="st13" cx="331" cy="628.6" r="21.8"/>
			<circle id="XMLID_529_" class="st15" cx="331" cy="628.6" r="20.1"/>
			<g id="XMLID_504_">
				<path id="XMLID_511_" class="st13" d="M320.2,636.2l2.2-2.1c-1.4-1.7-2.4-3.6-2.7-5l3.4-1.8c0.4,1.5,1.2,3.3,2.6,4.9
					c1.2,1.3,2.6,1.8,3.6,0.9c0.9-0.8,0.8-2.1-0.2-4.4c-1.5-3.3-1.9-6.1,0.4-8.2c2.1-1.9,5.1-2,7.9,0.1l2.2-2.1l2.1,2.3l-2.1,1.9
					c1.4,1.6,2,3,2.4,4.1l-3.3,1.8c-0.3-0.9-0.8-2.4-2.3-4.1c-1.4-1.5-2.5-1.4-3.2-0.8c-0.8,0.7-0.5,2,0.6,4.7
					c1.6,3.7,1.3,6.1-0.8,8c-2.1,1.9-5.3,2.1-8.3-0.2l-2.4,2.2L320.2,636.2z"/>
			</g>
		</g>
		<path id="XMLID_527_" class="st12" d="M536.3,657.8c16.5,10.5,39.5,9.7,55.2-2c0.5,11.8-0.6,24.4-0.1,36.2
			c-18.8,14.6-49.3,16.3-69.3,3.3C525.8,684.1,532.7,669.1,536.3,657.8z"/>
		<path id="XMLID_526_" class="st12" d="M673.6,788.1c1.6,18.7,3.4,38.2,5,56.9c-15,2-28.9,5.1-43.9,7.1c0.2-18.1,0.4-36.3,0.6-54.4
			C647.2,795.9,661.7,789.9,673.6,788.1z"/>
		<path id="XMLID_525_" class="st12" d="M700.5,647.9c1.6,18.7,3.4,38.2,5,56.9c-15,2-28.9,5.1-43.9,7.1c0.2-18.1,0.4-36.3,0.6-54.4
			C674,655.7,688.6,649.8,700.5,647.9z"/>
		<path id="XMLID_524_" class="st12" d="M807.1,605c16.5,10.5,39.5,9.7,55.2-2c0.5,11.8-0.6,24.4-0.1,36.2
			c-18.8,14.6-49.3,16.3-69.3,3.3C796.6,631.2,803.4,616.2,807.1,605z"/>
		<path id="XMLID_523_" class="st12" d="M643.7,730.5c-13.1-5.2-27.3-9.1-40.4-14.2c-0.8,12.9-9.2,24.4-19.6,32
			c-10.4,7.6-22.8,12-35,16.3c11,7.8,21.6,16.2,32.6,24.1C606.9,777.7,629.9,754.8,643.7,730.5z"/>
		<path id="XMLID_521_" class="st12" d="M764.9,846.9c-13-9.6-26.1-17.2-39.1-26.8c3.4,16.1,1,33.3-6.7,47.8
			c-7.7,14.5-20.5,26.3-35.7,32.5c15.7,5.2,31.6,11.7,47.4,16.9c19.4-16.1,31.7-40.8,35.6-65.7L764.9,846.9z"/>
		<path id="XMLID_520_" class="st12" d="M1018.2,581c-15.2-7.6-33.5-3.4-49.7,1.6c-16.2,5-33.5,10.9-49.9,6.1
			c9.4,14.8,19.3,28.4,28.7,43.3c10.3,1.9,22.1,0,32-3.6c9.9-3.5,19.5-8,29.8-10c10.3-2.1,21.6-1.5,30.3,4.5L1018.2,581z"/>
		<path id="XMLID_518_" class="st12" d="M1050,777.2c-6-12.9-11.8-27.1-17.8-40c-29.2,7.1-60.8,5.1-89.5-3.9c4,14.7,8,29.4,12,44.1
			C984.6,781,1020.2,781.3,1050,777.2z"/>
		<path id="XMLID_519_" class="st12" d="M1098.3,627.1c-10.2,10.6-16.2,24.3-23.7,36.9c-7.6,12.6-17.8,24.8-31.9,28.7
			c11.5,11.8,21.2,23.4,32.6,35.2c8.6-3.3,16.2-9.6,22.2-16.5c5.2-6,9.1-13,12.9-20c3.7-6.7,7.4-13.5,11.1-20.2L1098.3,627.1z"/>
	</g>
</g>
</svg>
